<svg xmlns="http://www.w3.org/2000/svg" viewBox="-34.653 -34.528 1066.419 369.119"><path fill-rule="evenodd" fill="#ff7800" d="M 22.4766 22.6016 L 172.8966 22.6016 L 172.8966 69.2297 L 121.0026 69.2297 L 121.0026 201.6016 L 74.3745 201.6016 L 74.3745 69.2297 L 22.4766 69.2297 Z M 22.4766 22.6016"/><path fill-rule="evenodd" fill="#ff7800" d="M 190.9488 22.6016 L 303.7628 22.6016 L 303.7628 69.2297 L 237.5808 69.2297 L 237.5808 88.7836 L 290.2277 88.7836 L 290.2277 135.4156 L 237.5808 135.4156 L 237.5808 154.9695 L 303.7628 154.9695 L 303.7628 201.6016 L 190.9488 201.6016 Z M 190.9488 22.6016"/><path fill-rule="evenodd" fill="#ff7800" d="M 321.8150 22.6016 L 472.2350 22.6016 L 472.2350 69.2297 L 420.3410 69.2297 L 420.3410 201.6016 L 373.7090 201.6016 L 373.7090 69.2297 L 321.8150 69.2297 Z M 321.8150 22.6016"/><path fill-rule="evenodd" fill="#ffffff" d="M 490.2832 22.6016 L 565.4952 22.6016 C 567.3420 22.6016 569.1849 22.6917 571.0238 22.8721 C 572.8627 23.0525 574.6860 23.3230 576.4975 23.6837 C 578.3129 24.0445 580.1008 24.4915 581.8692 25.0286 C 583.6376 25.5658 585.3745 26.1853 587.0802 26.8950 C 588.7858 27.6008 590.4561 28.3889 592.0833 29.2594 C 593.7144 30.1337 595.2985 31.0787 596.8316 32.1060 C 598.3686 33.1333 599.8508 34.2312 601.2780 35.4035 C 602.7052 36.5759 604.0736 37.8149 605.3793 39.1206 C 606.6850 40.4263 607.9280 41.7947 609.0964 43.2219 C 610.2688 44.6531 611.3706 46.1352 612.3939 47.6683 C 613.4212 49.2053 614.3701 50.7894 615.2406 52.4166 C 616.1110 54.0477 616.9030 55.7141 617.6088 57.4237 C 618.3146 59.1293 618.9380 60.8663 619.4713 62.6346 C 620.0085 64.4030 620.4594 66.1910 620.8201 68.0024 C 621.1769 69.8139 621.4474 71.6411 621.6317 73.4800 C 621.8121 75.3190 621.9023 77.1618 621.9023 79.0086 C 621.9023 80.8554 621.8121 82.6982 621.6317 84.5372 C 621.4474 86.3761 621.1769 88.1993 620.8201 90.0108 C 620.4594 91.8262 620.0085 93.6142 619.4713 95.3826 C 618.9380 97.1509 618.3146 98.8879 617.6088 100.5935 C 616.9030 102.2991 616.1110 103.9695 615.2406 105.5967 C 614.3701 107.2278 613.4212 108.8119 612.3939 110.3450 C 611.3706 111.8820 610.2688 113.3641 609.0964 114.7913 C 607.9280 116.2225 606.6850 117.5870 605.3793 118.8927 C 604.0736 120.2023 602.7052 121.4413 601.2780 122.6098 C 599.8508 123.7821 598.3686 124.8839 596.8316 125.9073 C 595.2985 126.9346 593.7144 127.8835 592.0833 128.7539 C 590.4561 129.6244 588.7858 130.4164 587.0802 131.1222 C 585.3745 131.8279 583.6376 132.4514 581.8692 132.9846 C 580.1008 133.5218 578.3129 133.9727 576.4975 134.3334 C 574.6860 134.6903 572.8627 134.9647 571.0238 135.1451 C 569.1849 135.3255 567.3420 135.4156 565.4952 135.4156 L 490.2832 135.4156 Z M 536.9153 69.2297 L 565.4952 69.2297 C 566.1383 69.2297 566.7735 69.2924 567.4008 69.4179 C 568.0321 69.5434 568.6438 69.7277 569.2358 69.9747 C 569.8279 70.2217 570.3925 70.5236 570.9258 70.8765 C 571.4590 71.2333 571.9531 71.6411 572.4079 72.0959 C 572.8627 72.5468 573.2666 73.0409 573.6234 73.5741 C 573.9802 74.1113 574.2821 74.6720 574.5292 75.2680 C 574.7723 75.8601 574.9605 76.4717 575.0820 77.0991 C 575.2075 77.7304 575.2702 78.3656 575.2702 79.0086 C 575.2702 79.6516 575.2075 80.2868 575.0820 80.9142 C 574.9605 81.5455 574.7723 82.1571 574.5292 82.7492 C 574.2821 83.3413 573.9802 83.9059 573.6234 84.4391 C 573.2666 84.9724 572.8627 85.4664 572.4079 85.9213 C 571.9531 86.3761 571.4590 86.7800 570.9258 87.1368 C 570.3925 87.4936 569.8279 87.7955 569.2358 88.0425 C 568.6438 88.2856 568.0321 88.4738 567.4008 88.5993 C 566.7735 88.7208 566.1383 88.7836 565.4952 88.7836 L 536.9153 88.7836 Z M 536.9153 69.2297"/><path fill-rule="evenodd" fill="#ffffff" d="M 531.6495 134.6628 L 580.5361 134.6628 L 627.9170 201.6016 L 579.0304 201.6016 Z M 531.6495 134.6628"/><path fill-rule="evenodd" fill="#ffffff" d="M 639.9544 22.6016 L 686.5826 22.6016 L 686.5826 201.6016 L 639.9544 201.6016 Z M 639.9544 22.6016"/><path fill-rule="evenodd" fill="#ffffff" d="M 704.6347 22.6016 L 772.3223 22.6016 C 774.1691 22.6016 776.0120 22.6917 777.8509 22.8721 C 779.6898 23.0525 781.5131 23.3230 783.3285 23.6837 C 785.1400 24.0445 786.9280 24.4915 788.6963 25.0286 C 790.4647 25.5658 792.2017 26.1853 793.9073 26.8950 C 795.6168 27.6008 797.2832 28.3889 798.9104 29.2594 C 800.5416 30.1337 802.1256 31.0787 803.6587 32.1060 C 805.1957 33.1333 806.6779 34.2312 808.1051 35.4035 C 809.5362 36.5759 810.9007 37.8149 812.2064 39.1206 C 813.5160 40.4263 814.7551 41.7947 815.9274 43.2219 C 817.0959 44.6531 818.1977 46.1352 819.2250 47.6683 C 820.2483 49.2053 821.1972 50.7894 822.0677 52.4166 C 822.9381 54.0477 823.7302 55.7141 824.4359 57.4237 C 825.1417 59.1293 825.7651 60.8663 826.3023 62.6346 C 826.8356 64.4030 827.2865 66.1910 827.6472 68.0024 C 828.0079 69.8139 828.2785 71.6411 828.4588 73.4800 C 828.6392 75.3190 828.7294 77.1618 828.7294 79.0086 C 828.7294 80.8554 828.6392 82.6982 828.4588 84.5372 C 828.2785 86.3761 828.0079 88.1993 827.6472 90.0108 C 827.2865 91.8262 826.8356 93.6142 826.3023 95.3826 C 825.7651 97.1509 825.1417 98.8879 824.4359 100.5935 C 823.7302 102.2991 822.9381 103.9695 822.0677 105.5967 C 821.1972 107.2278 820.2483 108.8119 819.2250 110.3450 C 818.1977 111.8820 817.0959 113.3641 815.9274 114.7913 C 814.7551 116.2225 813.5160 117.5870 812.2064 118.8927 C 810.9007 120.2023 809.5362 121.4413 808.1051 122.6098 C 806.6779 123.7821 805.1957 124.8839 803.6587 125.9073 C 802.1256 126.9346 800.5416 127.8835 798.9104 128.7539 C 797.2832 129.6244 795.6168 130.4164 793.9073 131.1222 C 792.2017 131.8279 790.4647 132.4514 788.6963 132.9846 C 786.9280 133.5218 785.1400 133.9727 783.3285 134.3334 C 781.5131 134.6903 779.6898 134.9647 777.8509 135.1451 C 776.0120 135.3255 774.1691 135.4156 772.3223 135.4156 L 704.6347 135.4156 Z M 751.2628 69.2297 L 772.3223 69.2297 C 772.9654 69.2297 773.6006 69.2924 774.2279 69.4179 C 774.8592 69.5434 775.4709 69.7277 776.0630 69.9747 C 776.6550 70.2217 777.2196 70.5236 777.7529 70.8765 C 778.2861 71.2333 778.7802 71.6411 779.2350 72.0959 C 779.6898 72.5468 780.0937 73.0409 780.4505 73.5741 C 780.8073 74.1113 781.1092 74.6720 781.3563 75.2680 C 781.5994 75.8601 781.7876 76.4717 781.9130 77.0991 C 782.0385 77.7304 782.1012 78.3656 782.1012 79.0086 C 782.1012 79.6516 782.0385 80.2868 781.9130 80.9142 C 781.7876 81.5455 781.5994 82.1571 781.3563 82.7492 C 781.1092 83.3413 780.8073 83.9059 780.4505 84.4391 C 780.0937 84.9724 779.6898 85.4664 779.2350 85.9213 C 778.7802 86.3761 778.2861 86.7800 777.7529 87.1368 C 777.2196 87.4936 776.6550 87.7955 776.0630 88.0425 C 775.4709 88.2856 774.8592 88.4738 774.2279 88.5993 C 773.6006 88.7208 772.9654 88.7836 772.3223 88.7836 L 751.2628 88.7836 Z M 704.6347 135.4156 L 751.2628 135.4156 L 751.2628 201.6016 L 704.6347 201.6016 Z M 704.6347 135.4156"/><path fill-rule="evenodd" fill="#ffffff" d="M 846.7815 22.6016 L 893.4097 22.6016 L 893.4097 88.7836 L 928.0083 88.7836 L 928.0083 22.6016 L 974.6364 22.6016 L 974.6364 201.6016 L 928.0083 201.6016 L 928.0083 135.4156 L 893.4097 135.4156 L 893.4097 201.6016 L 846.7815 201.6016 Z M 846.7815 22.6016"/><path fill-rule="evenodd" fill="#ffffff" d="M56.182 244.256 L56.162 244.222 L56.145 244.188 L56.130 244.152 L56.118 244.116 L56.108 244.079 L56.101 244.041 L56.097 244.004 L56.096 243.966 L56.097 243.928 L56.101 243.890 L56.108 243.853 L56.117 243.816 L56.130 243.779 L56.144 243.744 L56.162 243.709 L56.182 243.676 L56.204 243.643 L56.228 243.612 L56.255 243.583 L56.284 243.555 L56.315 243.529 L56.347 243.505 L56.381 243.483 L56.417 243.463 L56.454 243.445 L56.493 243.429 L56.532 243.416 L56.572 243.405 L56.613 243.396 L56.655 243.390 L56.697 243.386 L56.739 243.385 L61.945 243.385 L61.988 243.387 L62.031 243.390 L62.073 243.397 L62.115 243.406 L62.156 243.417 L62.196 243.431 L62.235 243.447 L62.273 243.466 L62.309 243.486 L62.343 243.509 L62.376 243.534 L62.407 243.561 L62.436 243.589 L62.462 243.620 L62.487 243.652 L62.509 243.685 L70.759 257.141 L78.986 243.685 L79.008 243.652 L79.033 243.620 L79.059 243.590 L79.088 243.561 L79.119 243.534 L79.152 243.510 L79.187 243.487 L79.223 243.466 L79.260 243.447 L79.299 243.431 L79.339 243.417 L79.380 243.406 L79.422 243.397 L79.465 243.390 L79.507 243.387 L79.550 243.385 L84.805 243.385 L84.847 243.386 L84.889 243.390 L84.931 243.396 L84.972 243.405 L85.012 243.416 L85.052 243.430 L85.090 243.445 L85.127 243.463 L85.163 243.483 L85.197 243.505 L85.230 243.530 L85.261 243.556 L85.289 243.583 L85.316 243.613 L85.341 243.644 L85.363 243.676 L85.383 243.710 L85.400 243.744 L85.415 243.780 L85.427 243.816 L85.436 243.853 L85.443 243.891 L85.447 243.929 L85.448 243.967 L85.447 244.004 L85.443 244.042 L85.436 244.080 L85.426 244.117 L85.414 244.153 L85.399 244.189 L85.381 244.223 L85.361 244.257 L73.849 262.076 L73.849 276.536 L73.848 276.574 L73.844 276.612 L73.837 276.649 L73.827 276.686 L73.815 276.722 L73.800 276.758 L73.783 276.792 L73.763 276.826 L73.741 276.858 L73.716 276.889 L73.690 276.918 L73.661 276.946 L73.630 276.972 L73.597 276.996 L73.563 277.018 L73.527 277.038 L73.490 277.056 L73.452 277.072 L73.413 277.085 L73.372 277.096 L73.331 277.105 L73.290 277.111 L73.248 277.114 L73.206 277.116 L68.290 277.116 L68.248 277.114 L68.206 277.111 L68.164 277.105 L68.123 277.096 L68.083 277.085 L68.044 277.072 L68.005 277.056 L67.968 277.038 L67.932 277.018 L67.898 276.996 L67.866 276.972 L67.835 276.946 L67.806 276.918 L67.779 276.889 L67.755 276.858 L67.733 276.826 L67.713 276.792 L67.695 276.758 L67.681 276.722 L67.668 276.686 L67.659 276.649 L67.652 276.612 L67.648 276.574 L67.646 276.536 L67.646 262.075 Z M 117.3975 276.9141 C 115.6280 276.7383 115.1475 276.6446 113.9717 276.2539 C 107.2998 274.0274 103.4951 267.8438 103.7061 259.5664 C 103.8701 252.9610 106.0420 248.2188 110.3272 245.1172 C 115.2022 241.5977 123.4795 241.7305 128.2998 245.4024 C 129.5733 246.3750 131.1162 248.0235 131.6631 249.0118 C 133.0186 251.4258 133.3194 252.1446 133.8662 254.3164 C 134.3467 256.1875 134.5342 260.2383 134.2569 262.7852 C 133.9483 265.6016 132.4717 269.6328 131.2217 271.0860 C 131.0264 271.3086 130.6670 271.7461 130.4366 272.0508 C 127.8506 275.4141 122.4834 277.4219 117.3975 276.9141 Z M 120.0694 272.0078 C 125.8897 271.4453 129.3116 264.4180 127.8819 255.9922 C 127.2530 252.3243 124.5811 248.6524 121.9795 247.8946 C 115.5147 246.0235 111.0147 249.7305 109.9522 257.8203 C 109.7256 259.5118 109.7178 260.4180 109.9053 261.6641 C 109.9873 262.1797 110.1162 263.0391 110.1983 263.5821 C 111.0303 269.1680 114.9483 272.5078 120.0694 272.0078 Z M152.581 243.965 L152.582 243.927 L152.586 243.889 L152.593 243.852 L152.603 243.815 L152.615 243.779 L152.630 243.743 L152.647 243.709 L152.667 243.675 L152.689 243.643 L152.714 243.612 L152.741 243.583 L152.769 243.555 L152.800 243.529 L152.833 243.505 L152.867 243.483 L152.903 243.463 L152.940 243.445 L152.978 243.429 L153.018 243.416 L153.058 243.405 L153.099 243.396 L153.140 243.390 L153.182 243.386 L153.224 243.385 L159.763 243.385 L159.805 243.386 L159.847 243.390 L159.888 243.396 L159.929 243.405 L159.969 243.416 L160.009 243.429 L160.047 243.445 L160.084 243.463 L160.120 243.483 L160.154 243.505 L160.187 243.529 L160.218 243.555 L160.246 243.583 L160.273 243.612 L160.298 243.643 L160.320 243.675 L160.340 243.709 L160.357 243.743 L160.372 243.779 L166.013 258.748 L171.697 243.777 L171.712 243.742 L171.730 243.707 L171.750 243.674 L171.772 243.642 L171.796 243.611 L171.823 243.582 L171.852 243.554 L171.883 243.529 L171.915 243.505 L171.949 243.483 L171.985 243.463 L172.022 243.445 L172.060 243.429 L172.100 243.416 L172.140 243.405 L172.181 243.396 L172.222 243.390 L172.264 243.386 L172.306 243.385 L178.869 243.385 L178.911 243.386 L178.953 243.390 L178.994 243.396 L179.035 243.405 L179.076 243.416 L179.115 243.429 L179.153 243.445 L179.190 243.463 L179.226 243.483 L179.260 243.505 L179.293 243.529 L179.324 243.555 L179.353 243.583 L179.379 243.612 L179.404 243.643 L179.426 243.675 L179.446 243.709 L179.463 243.743 L179.478 243.779 L179.490 243.815 L179.500 243.852 L179.507 243.889 L179.511 243.927 L179.512 243.965 L179.512 276.536 L179.511 276.574 L179.507 276.612 L179.500 276.649 L179.490 276.686 L179.478 276.722 L179.463 276.758 L179.446 276.792 L179.426 276.826 L179.404 276.858 L179.379 276.889 L179.353 276.918 L179.324 276.946 L179.293 276.972 L179.260 276.996 L179.226 277.018 L179.190 277.038 L179.153 277.056 L179.115 277.072 L179.076 277.085 L179.035 277.096 L178.994 277.105 L178.953 277.111 L178.911 277.114 L178.869 277.116 L174.340 277.116 L174.298 277.114 L174.256 277.111 L174.215 277.105 L174.174 277.096 L174.134 277.085 L174.094 277.072 L174.056 277.056 L174.019 277.038 L173.983 277.018 L173.949 276.996 L173.916 276.972 L173.885 276.946 L173.857 276.918 L173.830 276.889 L173.805 276.858 L173.783 276.826 L173.763 276.792 L173.746 276.758 L173.731 276.722 L173.719 276.686 L173.709 276.649 L173.702 276.612 L173.698 276.574 L173.697 276.536 L173.697 251.287 L168.509 265.116 L168.494 265.151 L168.477 265.186 L168.457 265.219 L168.434 265.252 L168.410 265.282 L168.383 265.312 L168.354 265.340 L168.324 265.366 L168.291 265.390 L168.257 265.412 L168.221 265.432 L168.184 265.450 L168.146 265.466 L168.106 265.479 L168.066 265.490 L168.025 265.499 L167.983 265.505 L167.941 265.508 L167.899 265.510 L164.194 265.510 L164.152 265.508 L164.110 265.505 L164.068 265.499 L164.027 265.490 L163.987 265.479 L163.948 265.466 L163.909 265.450 L163.872 265.432 L163.836 265.412 L163.802 265.390 L163.770 265.366 L163.739 265.340 L163.710 265.312 L163.683 265.283 L163.659 265.252 L163.637 265.220 L163.617 265.186 L163.599 265.152 L163.585 265.116 L158.372 251.274 L158.372 276.536 L158.371 276.574 L158.367 276.612 L158.360 276.649 L158.350 276.686 L158.338 276.722 L158.323 276.758 L158.306 276.792 L158.286 276.826 L158.264 276.858 L158.239 276.889 L158.212 276.918 L158.184 276.946 L158.153 276.972 L158.120 276.996 L158.086 277.018 L158.050 277.038 L158.013 277.056 L157.975 277.072 L157.935 277.085 L157.895 277.096 L157.854 277.105 L157.813 277.111 L157.771 277.114 L157.729 277.116 L153.224 277.116 L153.182 277.114 L153.140 277.111 L153.099 277.105 L153.058 277.096 L153.018 277.085 L152.978 277.072 L152.940 277.056 L152.903 277.038 L152.867 277.018 L152.833 276.996 L152.800 276.972 L152.769 276.946 L152.741 276.918 L152.714 276.889 L152.689 276.858 L152.667 276.826 L152.647 276.792 L152.630 276.758 L152.615 276.722 L152.603 276.686 L152.593 276.649 L152.586 276.612 L152.582 276.574 L152.581 276.536 Z M 250.5272 276.2227 C 249.8748 276.1914 249.4803 276.1250 249.3748 276.0352 C 248.9412 275.6758 248.9608 276.2071 248.9022 261.9922 C 248.8709 254.6133 248.8123 248.5118 248.7694 248.4219 C 248.4764 247.8750 248.7069 247.9024 243.4334 247.8516 C 237.2615 247.7930 237.6600 247.9571 237.6756 245.4610 C 237.6912 243.8828 237.7733 243.5743 238.2967 243.2969 C 238.7225 243.0743 265.1014 243.0508 265.5584 243.2735 C 266.1678 243.5664 266.2264 243.7696 266.1873 245.4453 C 266.1444 248.0078 266.6600 247.7930 260.4295 247.8516 C 256.8201 247.8907 255.4022 247.9258 255.2615 248.0078 C 254.7655 248.2930 254.7967 247.4336 254.7811 261.8282 C 254.7576 275.1914 254.7576 275.2032 254.5662 275.6094 C 254.2186 276.3282 253.7420 276.4024 250.5272 276.2227 Z M 298.6090 276.9141 C 296.8395 276.7383 296.3590 276.6446 295.1832 276.2539 C 288.5113 274.0274 284.7066 267.8438 284.9176 259.5664 C 285.0816 252.9610 287.2535 248.2188 291.5387 245.1172 C 296.4137 241.5977 304.6910 241.7305 309.5113 245.4024 C 310.7848 246.3750 312.3277 248.0235 312.8746 249.0118 C 314.2301 251.4258 314.5309 252.1446 315.0777 254.3164 C 315.5582 256.1875 315.7457 260.2383 315.4684 262.7852 C 315.1598 265.6016 313.6832 269.6328 312.4332 271.0860 C 312.2379 271.3086 311.8785 271.7461 311.6481 272.0508 C 309.0621 275.4141 303.6949 277.4219 298.6090 276.9141 Z M 301.2809 272.0078 C 307.1012 271.4453 310.5231 264.4180 309.0934 255.9922 C 308.4645 252.3243 305.7926 248.6524 303.1910 247.8946 C 296.7262 246.0235 292.2262 249.7305 291.1637 257.8203 C 290.9371 259.5118 290.9293 260.4180 291.1168 261.6641 C 291.1988 262.1797 291.3277 263.0391 291.4098 263.5821 C 292.2418 269.1680 296.1598 272.5078 301.2809 272.0078 Z M347.973 270.563 L355.850 243.816 L355.862 243.780 L355.877 243.744 L355.894 243.710 L355.914 243.676 L355.936 243.644 L355.961 243.613 L355.987 243.583 L356.016 243.556 L356.047 243.530 L356.080 243.505 L356.114 243.483 L356.150 243.463 L356.187 243.445 L356.225 243.430 L356.265 243.416 L356.305 243.405 L356.346 243.396 L356.388 243.390 L356.430 243.386 L356.472 243.385 L361.533 243.385 L361.576 243.386 L361.618 243.390 L361.660 243.397 L361.702 243.405 L361.742 243.417 L361.782 243.430 L361.821 243.446 L361.858 243.465 L361.894 243.485 L361.929 243.508 L361.962 243.533 L361.992 243.559 L362.021 243.587 L362.048 243.617 L362.072 243.649 L362.094 243.682 L362.114 243.716 L362.131 243.751 L362.146 243.787 L362.157 243.824 L362.166 243.862 L362.172 243.900 L362.176 243.938 L362.176 243.976 L362.174 244.015 L362.169 244.053 L362.161 244.091 L362.151 244.128 L351.568 276.699 L351.556 276.734 L351.540 276.769 L351.522 276.802 L351.502 276.835 L351.480 276.866 L351.455 276.896 L351.428 276.925 L351.400 276.952 L351.369 276.977 L351.337 277.000 L351.303 277.021 L351.267 277.041 L351.231 277.058 L351.193 277.073 L351.154 277.086 L351.114 277.097 L351.074 277.105 L351.033 277.111 L350.992 277.115 L350.951 277.116 L345.018 277.116 L344.977 277.115 L344.935 277.111 L344.895 277.105 L344.854 277.097 L344.815 277.086 L344.776 277.073 L344.738 277.058 L344.701 277.041 L344.666 277.021 L344.632 277.000 L344.600 276.977 L344.569 276.952 L344.541 276.925 L344.514 276.896 L344.489 276.866 L344.467 276.835 L344.446 276.802 L344.429 276.769 L344.413 276.734 L344.400 276.699 L333.818 244.128 L333.808 244.091 L333.800 244.053 L333.795 244.015 L333.792 243.976 L333.793 243.938 L333.796 243.900 L333.803 243.862 L333.812 243.824 L333.823 243.787 L333.838 243.751 L333.855 243.716 L333.874 243.682 L333.896 243.649 L333.921 243.617 L333.947 243.587 L333.976 243.559 L334.007 243.533 L334.040 243.508 L334.074 243.485 L334.110 243.465 L334.148 243.446 L334.187 243.430 L334.226 243.417 L334.267 243.405 L334.309 243.397 L334.351 243.390 L334.393 243.386 L334.436 243.385 L339.497 243.385 L339.539 243.386 L339.581 243.390 L339.623 243.396 L339.664 243.405 L339.704 243.416 L339.744 243.430 L339.782 243.445 L339.819 243.463 L339.855 243.483 L339.889 243.506 L339.922 243.530 L339.953 243.556 L339.982 243.584 L340.008 243.613 L340.033 243.644 L340.055 243.676 L340.075 243.710 L340.092 243.745 L340.107 243.780 L340.119 243.817 Z M419.933 244.051 L419.928 244.013 L419.926 243.974 L419.926 243.936 L419.930 243.898 L419.936 243.860 L419.945 243.822 L419.957 243.786 L419.972 243.750 L419.989 243.714 L420.008 243.680 L420.031 243.648 L420.055 243.616 L420.082 243.587 L420.111 243.558 L420.141 243.532 L420.174 243.507 L420.208 243.485 L420.244 243.464 L420.282 243.446 L420.321 243.430 L420.360 243.417 L420.401 243.405 L420.442 243.397 L420.484 243.390 L420.527 243.386 L420.569 243.385 L425.340 243.385 L425.382 243.386 L425.424 243.390 L425.466 243.397 L425.508 243.405 L425.548 243.417 L425.588 243.430 L425.627 243.446 L425.664 243.464 L425.700 243.485 L425.735 243.507 L425.767 243.532 L425.798 243.558 L425.827 243.586 L425.854 243.616 L425.878 243.647 L425.900 243.680 L425.920 243.714 L425.937 243.749 L425.951 243.785 L425.963 243.822 L425.972 243.859 L425.979 243.897 L428.984 266.840 L432.290 252.789 L432.300 252.753 L432.312 252.717 L432.327 252.682 L432.345 252.648 L432.365 252.615 L432.387 252.583 L432.412 252.553 L432.439 252.524 L432.467 252.497 L432.498 252.471 L432.530 252.447 L432.564 252.426 L432.600 252.406 L432.637 252.388 L432.675 252.373 L432.714 252.360 L432.754 252.349 L432.795 252.341 L432.836 252.335 L432.877 252.331 L432.919 252.330 L438.029 252.330 L438.070 252.331 L438.112 252.335 L438.153 252.341 L438.193 252.349 L438.233 252.360 L438.272 252.373 L438.310 252.388 L438.347 252.406 L438.383 252.425 L438.417 252.447 L438.449 252.471 L438.480 252.496 L438.509 252.523 L438.535 252.552 L438.560 252.582 L438.582 252.614 L438.602 252.647 L438.620 252.681 L438.635 252.716 L438.648 252.752 L438.658 252.788 L442.009 266.902 L445.017 243.897 L445.024 243.859 L445.033 243.822 L445.045 243.785 L445.059 243.749 L445.076 243.714 L445.096 243.680 L445.118 243.647 L445.143 243.616 L445.169 243.586 L445.198 243.558 L445.229 243.532 L445.262 243.507 L445.296 243.485 L445.332 243.464 L445.369 243.446 L445.408 243.430 L445.448 243.417 L445.488 243.405 L445.530 243.397 L445.572 243.390 L445.614 243.386 L445.656 243.385 L450.427 243.385 L450.469 243.386 L450.512 243.390 L450.554 243.397 L450.595 243.405 L450.636 243.417 L450.676 243.430 L450.714 243.446 L450.752 243.464 L450.788 243.485 L450.822 243.507 L450.855 243.532 L450.886 243.558 L450.914 243.587 L450.941 243.616 L450.966 243.648 L450.988 243.680 L451.007 243.714 L451.024 243.750 L451.039 243.786 L451.051 243.822 L451.060 243.860 L451.066 243.898 L451.070 243.936 L451.070 243.974 L451.068 244.013 L451.063 244.051 L445.663 276.622 L445.656 276.658 L445.646 276.695 L445.633 276.731 L445.618 276.765 L445.600 276.799 L445.580 276.832 L445.558 276.864 L445.533 276.894 L445.506 276.923 L445.478 276.950 L445.447 276.975 L445.415 276.999 L445.381 277.020 L445.345 277.040 L445.308 277.057 L445.270 277.073 L445.231 277.086 L445.191 277.096 L445.151 277.105 L445.110 277.111 L445.068 277.115 L445.027 277.116 L440.402 277.116 L440.360 277.115 L440.319 277.111 L440.279 277.105 L440.239 277.097 L440.199 277.086 L440.160 277.073 L440.123 277.058 L440.086 277.041 L440.051 277.022 L440.017 277.001 L439.985 276.978 L439.954 276.953 L439.925 276.926 L439.899 276.898 L439.874 276.868 L439.852 276.837 L439.831 276.804 L439.813 276.771 L439.798 276.736 L439.785 276.701 L439.774 276.665 L435.488 259.790 L431.222 276.665 L431.211 276.701 L431.198 276.736 L431.183 276.770 L431.165 276.804 L431.145 276.836 L431.122 276.868 L431.098 276.897 L431.071 276.926 L431.042 276.952 L431.012 276.977 L430.979 277.001 L430.946 277.022 L430.910 277.041 L430.874 277.058 L430.836 277.073 L430.797 277.086 L430.758 277.097 L430.717 277.105 L430.677 277.111 L430.636 277.115 L430.594 277.116 L425.969 277.116 L425.928 277.115 L425.886 277.111 L425.845 277.105 L425.805 277.096 L425.765 277.086 L425.726 277.073 L425.688 277.057 L425.651 277.040 L425.616 277.020 L425.582 276.999 L425.549 276.975 L425.519 276.950 L425.490 276.923 L425.463 276.894 L425.438 276.864 L425.416 276.832 L425.396 276.799 L425.378 276.765 L425.363 276.731 L425.350 276.695 L425.340 276.658 L425.333 276.622 Z M486.760 243.385 L486.803 243.387 L486.846 243.390 L486.888 243.397 L486.930 243.406 L486.971 243.417 L487.012 243.431 L487.051 243.448 L487.089 243.467 L487.125 243.488 L487.160 243.511 L487.192 243.536 L487.223 243.563 L487.252 243.592 L487.279 243.622 L487.303 243.654 L487.325 243.688 L487.344 243.723 L487.361 243.759 L487.375 243.795 L498.442 276.366 L498.452 276.402 L498.461 276.439 L498.466 276.476 L498.469 276.513 L498.470 276.550 L498.467 276.588 L498.462 276.625 L498.454 276.661 L498.444 276.698 L498.431 276.733 L498.416 276.768 L498.398 276.802 L498.378 276.834 L498.356 276.866 L498.331 276.896 L498.304 276.924 L498.276 276.951 L498.245 276.976 L498.213 277.000 L498.179 277.021 L498.143 277.040 L498.107 277.058 L498.069 277.073 L498.030 277.086 L497.990 277.097 L497.950 277.105 L497.909 277.111 L497.868 277.115 L497.826 277.116 L492.765 277.116 L492.724 277.115 L492.682 277.111 L492.641 277.105 L492.600 277.096 L492.560 277.086 L492.521 277.073 L492.483 277.057 L492.446 277.040 L492.411 277.020 L492.377 276.998 L492.345 276.975 L492.314 276.949 L492.285 276.922 L492.258 276.893 L492.234 276.863 L492.211 276.831 L492.191 276.798 L492.174 276.764 L492.159 276.730 L492.146 276.694 L489.615 268.629 L477.926 268.629 L475.442 276.691 L475.429 276.727 L475.414 276.762 L475.396 276.796 L475.376 276.829 L475.354 276.861 L475.330 276.892 L475.303 276.921 L475.274 276.948 L475.243 276.974 L475.211 276.998 L475.177 277.019 L475.141 277.039 L475.104 277.057 L475.066 277.072 L475.027 277.085 L474.987 277.096 L474.946 277.105 L474.905 277.111 L474.863 277.115 L474.821 277.116 L469.760 277.116 L469.719 277.115 L469.678 277.111 L469.637 277.105 L469.596 277.097 L469.557 277.086 L469.518 277.073 L469.480 277.058 L469.443 277.040 L469.408 277.021 L469.374 277.000 L469.342 276.976 L469.311 276.951 L469.282 276.924 L469.256 276.896 L469.231 276.866 L469.209 276.834 L469.188 276.802 L469.171 276.768 L469.155 276.733 L469.142 276.698 L469.132 276.661 L469.124 276.625 L469.119 276.588 L469.117 276.550 L469.117 276.513 L469.120 276.476 L469.126 276.439 L469.134 276.402 L469.145 276.366 L480.212 243.795 L480.226 243.759 L480.242 243.723 L480.262 243.688 L480.283 243.654 L480.308 243.622 L480.334 243.592 L480.363 243.563 L480.394 243.536 L480.427 243.511 L480.462 243.488 L480.498 243.467 L480.536 243.448 L480.575 243.431 L480.615 243.417 L480.656 243.406 L480.698 243.397 L480.741 243.390 L480.784 243.387 L480.827 243.385 Z M479.471 263.936 L488.092 263.936 L483.781 250.007 Z M 529.7818 276.2227 C 529.1295 276.1914 528.7350 276.1250 528.6295 276.0352 C 528.1959 275.6758 528.2154 276.2071 528.1568 261.9922 C 528.1256 254.6133 528.0670 248.5118 528.0240 248.4219 C 527.7311 247.8750 527.9615 247.9024 522.6881 247.8516 C 516.5162 247.7930 516.9146 247.9571 516.9303 245.4610 C 516.9459 243.8828 517.0279 243.5743 517.5514 243.2969 C 517.9771 243.0743 544.3561 243.0508 544.8131 243.2735 C 545.4225 243.5664 545.4811 243.7696 545.4420 245.4453 C 545.3990 248.0078 545.9146 247.7930 539.6842 247.8516 C 536.0748 247.8907 534.6568 247.9258 534.5162 248.0078 C 534.0201 248.2930 534.0514 247.4336 534.0357 261.8282 C 534.0123 275.1914 534.0123 275.2032 533.8209 275.6094 C 533.4732 276.3282 532.9967 276.4024 529.7818 276.2227 Z M563.961 243.965 L563.963 243.927 L563.967 243.889 L563.974 243.852 L563.983 243.815 L563.995 243.779 L564.010 243.743 L564.028 243.709 L564.048 243.675 L564.070 243.643 L564.094 243.612 L564.121 243.583 L564.150 243.555 L564.181 243.529 L564.213 243.505 L564.247 243.483 L564.283 243.463 L564.320 243.445 L564.359 243.429 L564.398 243.416 L564.438 243.405 L564.479 243.396 L564.521 243.390 L564.563 243.386 L564.605 243.385 L586.060 243.385 L586.102 243.386 L586.144 243.390 L586.185 243.396 L586.226 243.405 L586.267 243.416 L586.306 243.429 L586.344 243.445 L586.382 243.463 L586.417 243.483 L586.452 243.505 L586.484 243.529 L586.515 243.555 L586.544 243.583 L586.570 243.612 L586.595 243.643 L586.617 243.675 L586.637 243.709 L586.654 243.743 L586.669 243.779 L586.681 243.815 L586.691 243.852 L586.698 243.889 L586.702 243.927 L586.703 243.965 L586.703 247.674 L586.702 247.712 L586.698 247.749 L586.691 247.787 L586.681 247.824 L586.669 247.860 L586.654 247.896 L586.637 247.930 L586.617 247.964 L586.595 247.996 L586.570 248.027 L586.544 248.056 L586.515 248.084 L586.484 248.110 L586.452 248.134 L586.417 248.156 L586.382 248.176 L586.344 248.194 L586.306 248.209 L586.267 248.223 L586.226 248.234 L586.185 248.242 L586.144 248.248 L586.102 248.252 L586.060 248.253 L570.140 248.253 L570.140 256.736 L585.333 256.736 L585.375 256.738 L585.417 256.741 L585.459 256.748 L585.500 256.756 L585.540 256.767 L585.580 256.781 L585.618 256.796 L585.655 256.814 L585.691 256.834 L585.725 256.856 L585.758 256.880 L585.788 256.906 L585.817 256.934 L585.844 256.963 L585.868 256.994 L585.891 257.026 L585.911 257.060 L585.928 257.094 L585.943 257.130 L585.955 257.166 L585.965 257.203 L585.971 257.241 L585.976 257.278 L585.977 257.316 L585.977 261.025 L585.976 261.063 L585.971 261.101 L585.965 261.138 L585.955 261.175 L585.943 261.211 L585.928 261.247 L585.911 261.281 L585.891 261.315 L585.868 261.347 L585.844 261.378 L585.817 261.407 L585.788 261.435 L585.758 261.461 L585.725 261.485 L585.691 261.507 L585.655 261.527 L585.618 261.545 L585.580 261.561 L585.540 261.574 L585.500 261.585 L585.459 261.594 L585.417 261.600 L585.375 261.603 L585.333 261.605 L570.140 261.605 L570.140 272.248 L586.520 272.248 L586.562 272.249 L586.604 272.252 L586.645 272.259 L586.686 272.267 L586.727 272.278 L586.766 272.292 L586.805 272.307 L586.842 272.325 L586.877 272.345 L586.912 272.367 L586.944 272.391 L586.975 272.417 L587.004 272.445 L587.030 272.474 L587.055 272.505 L587.077 272.537 L587.097 272.571 L587.114 272.605 L587.129 272.641 L587.142 272.677 L587.151 272.714 L587.158 272.752 L587.162 272.789 L587.163 272.827 L587.163 276.536 L587.162 276.574 L587.158 276.612 L587.151 276.649 L587.142 276.686 L587.129 276.722 L587.114 276.758 L587.097 276.792 L587.077 276.826 L587.055 276.858 L587.030 276.889 L587.004 276.918 L586.975 276.946 L586.944 276.972 L586.912 276.996 L586.877 277.018 L586.842 277.038 L586.805 277.056 L586.766 277.072 L586.727 277.085 L586.686 277.096 L586.645 277.105 L586.604 277.111 L586.562 277.114 L586.520 277.116 L564.605 277.116 L564.563 277.114 L564.521 277.111 L564.479 277.105 L564.438 277.096 L564.398 277.085 L564.359 277.072 L564.320 277.056 L564.283 277.038 L564.247 277.018 L564.213 276.996 L564.181 276.972 L564.150 276.946 L564.121 276.918 L564.094 276.889 L564.070 276.858 L564.048 276.826 L564.028 276.792 L564.010 276.758 L563.995 276.722 L563.983 276.686 L563.974 276.649 L563.967 276.612 L563.963 276.574 L563.961 276.536 Z M622.907 261.306 L623.139 261.431 L623.164 261.445 L623.421 261.599 L623.446 261.614 L623.695 261.778 L623.718 261.794 L623.959 261.969 L623.982 261.986 L624.215 262.172 L624.236 262.189 L624.462 262.386 L624.486 262.407 L624.712 262.626 L624.734 262.648 L624.970 262.900 L624.987 262.919 L625.231 263.205 L625.245 263.221 L625.499 263.540 L625.510 263.555 L625.773 263.907 L625.782 263.920 L626.054 264.306 L626.062 264.317 L626.343 264.736 L626.349 264.746 L626.639 265.199 L626.645 265.208 L626.944 265.694 L626.948 265.702 L627.257 266.222 L627.261 266.229 L627.578 266.782 L627.582 266.789 L627.908 267.375 L627.909 267.377 L632.825 276.278 L632.842 276.312 L632.857 276.348 L632.870 276.384 L632.879 276.421 L632.886 276.459 L632.891 276.496 L632.892 276.534 L632.891 276.572 L632.887 276.610 L632.880 276.648 L632.871 276.685 L632.858 276.721 L632.844 276.757 L632.826 276.791 L632.806 276.825 L632.784 276.857 L632.760 276.888 L632.733 276.918 L632.704 276.945 L632.674 276.971 L632.641 276.996 L632.607 277.018 L632.571 277.038 L632.534 277.056 L632.495 277.071 L632.456 277.085 L632.415 277.096 L632.374 277.105 L632.333 277.111 L632.291 277.114 L632.249 277.116 L626.994 277.116 L626.951 277.114 L626.909 277.111 L626.866 277.104 L626.825 277.095 L626.784 277.084 L626.744 277.070 L626.705 277.054 L626.668 277.036 L626.631 277.015 L626.597 276.992 L626.564 276.968 L626.533 276.941 L626.504 276.913 L626.478 276.882 L626.453 276.851 L626.431 276.818 L626.412 276.784 L622.103 268.562 L621.800 268.003 L621.502 267.479 L621.211 266.992 L620.927 266.540 L620.649 266.125 L620.378 265.746 L620.114 265.403 L619.859 265.098 L619.613 264.829 L619.377 264.598 L619.152 264.405 L618.939 264.246 L618.721 264.107 L618.488 263.978 L618.244 263.861 L617.987 263.756 L617.717 263.662 L617.434 263.581 L617.137 263.511 L616.827 263.454 L616.502 263.409 L616.163 263.376 L615.810 263.357 L615.437 263.350 L611.413 263.350 L611.413 276.536 L611.412 276.574 L611.407 276.612 L611.401 276.649 L611.391 276.686 L611.379 276.722 L611.364 276.758 L611.347 276.792 L611.327 276.826 L611.304 276.858 L611.280 276.889 L611.253 276.918 L611.224 276.946 L611.194 276.972 L611.161 276.996 L611.127 277.018 L611.091 277.038 L611.054 277.056 L611.016 277.072 L610.976 277.085 L610.936 277.096 L610.895 277.105 L610.853 277.111 L610.812 277.114 L610.769 277.116 L605.854 277.116 L605.812 277.114 L605.770 277.111 L605.728 277.105 L605.687 277.096 L605.647 277.085 L605.607 277.072 L605.569 277.056 L605.532 277.038 L605.496 277.018 L605.462 276.996 L605.429 276.972 L605.399 276.946 L605.370 276.918 L605.343 276.889 L605.319 276.858 L605.296 276.826 L605.276 276.792 L605.259 276.758 L605.244 276.722 L605.232 276.686 L605.222 276.649 L605.216 276.612 L605.211 276.574 L605.210 276.536 L605.210 243.965 L605.211 243.927 L605.216 243.889 L605.222 243.852 L605.232 243.815 L605.244 243.779 L605.259 243.743 L605.276 243.709 L605.296 243.675 L605.319 243.643 L605.343 243.612 L605.370 243.583 L605.399 243.555 L605.429 243.529 L605.462 243.505 L605.496 243.483 L605.532 243.463 L605.569 243.445 L605.607 243.429 L605.647 243.416 L605.687 243.405 L605.728 243.396 L605.770 243.390 L605.812 243.386 L605.854 243.385 L615.927 243.385 L615.940 243.385 L616.913 243.402 L616.939 243.403 L617.874 243.454 L617.902 243.456 L618.798 243.540 L618.829 243.543 L619.686 243.661 L619.719 243.666 L620.537 243.817 L620.572 243.825 L621.352 244.010 L621.388 244.019 L622.130 244.238 L622.168 244.250 L622.871 244.503 L622.910 244.518 L623.574 244.804 L623.614 244.823 L624.239 245.142 L624.279 245.165 L624.866 245.518 L624.905 245.543 L625.453 245.930 L625.492 245.959 L625.998 246.378 L626.035 246.411 L626.497 246.859 L626.531 246.895 L626.950 247.373 L626.981 247.412 L627.355 247.920 L627.382 247.960 L627.713 248.499 L627.735 248.540 L628.022 249.108 L628.040 249.149 L628.283 249.748 L628.297 249.788 L628.495 250.417 L628.506 250.456 L628.660 251.114 L628.668 251.151 L628.778 251.840 L628.782 251.874 L628.848 252.593 L628.850 252.625 L628.872 253.374 L628.872 253.403 L628.859 253.933 L628.857 253.960 L628.817 254.474 L628.813 254.503 L628.746 255.000 L628.741 255.031 L628.646 255.511 L628.638 255.543 L628.517 256.007 L628.507 256.040 L628.358 256.487 L628.345 256.521 L628.169 256.952 L628.154 256.986 L627.951 257.400 L627.933 257.434 L627.703 257.832 L627.682 257.865 L627.425 258.246 L627.402 258.278 L627.117 258.643 L627.092 258.673 L626.781 259.022 L626.753 259.050 L626.417 259.379 L626.387 259.407 L626.029 259.714 L625.997 259.739 L625.617 260.024 L625.584 260.048 L625.182 260.311 L625.147 260.332 L624.723 260.573 L624.688 260.592 L624.242 260.811 L624.206 260.827 L623.738 261.025 L623.703 261.038 L623.213 261.214 L623.178 261.225 Z M611.413 258.569 L616.115 258.569 L616.668 258.560 L617.189 258.531 L617.682 258.485 L618.148 258.420 L618.587 258.338 L618.998 258.239 L619.383 258.123 L619.740 257.990 L620.072 257.842 L620.377 257.678 L620.659 257.498 L620.916 257.303 L621.152 257.091 L621.368 256.861 L621.563 256.612 L621.740 256.343 L621.897 256.053 L622.035 255.741 L622.153 255.407 L622.250 255.050 L622.327 254.669 L622.382 254.266 L622.416 253.839 L622.427 253.390 L622.415 252.959 L622.380 252.549 L622.322 252.160 L622.241 251.791 L622.137 251.442 L622.012 251.113 L621.866 250.802 L621.698 250.510 L621.509 250.236 L621.299 249.978 L621.066 249.737 L620.810 249.511 L620.532 249.301 L620.233 249.109 L619.912 248.934 L619.568 248.777 L619.200 248.636 L618.808 248.514 L618.390 248.409 L617.948 248.322 L617.481 248.255 L616.988 248.206 L616.470 248.176 L615.921 248.166 L611.413 248.166 Z M 700.7001 276.8750 C 697.9735 276.6719 694.7079 275.8282 692.3016 274.6953 C 690.7313 273.9532 690.6415 273.6250 691.3954 271.2657 C 692.1180 269.0118 692.1844 268.9961 695.1102 270.3125 C 695.8680 270.6524 696.9462 271.0235 698.7899 271.5782 C 700.3758 272.0586 703.9501 272.1797 705.6962 271.8203 C 708.9618 271.1368 710.4969 268.7110 709.4344 265.8711 C 708.8876 264.4258 707.5516 263.6485 703.0204 262.1289 C 694.2196 259.1680 691.8407 257.1094 691.4930 252.1524 C 691.0008 245.1250 698.3329 241.1407 708.2196 243.0743 C 708.9696 243.2149 709.8602 243.3868 710.2040 243.4414 C 710.5477 243.5000 711.0360 243.6328 711.2821 243.7383 C 711.5282 243.8516 712.0907 244.0625 712.5243 244.2188 C 714.4227 244.8868 714.5868 245.2461 713.9852 247.4024 C 713.3719 249.6485 712.8915 249.9649 711.3055 249.1993 C 706.6024 246.9297 700.5946 246.7344 698.4969 248.7735 C 696.6844 250.5391 697.4579 253.8360 699.8993 254.7657 C 700.1766 254.8711 700.6532 255.0625 700.9618 255.2071 C 701.2782 255.3477 702.7079 255.8516 704.1454 256.3282 C 710.1376 258.3164 711.7157 259.0860 713.5360 260.9532 C 715.5985 263.0625 716.2704 265.9844 715.4852 269.4610 C 714.3172 274.6211 708.6532 277.4610 700.7001 276.8750 Z M734.404 244.256 L734.384 244.222 L734.366 244.188 L734.352 244.152 L734.339 244.116 L734.330 244.079 L734.323 244.041 L734.318 244.004 L734.317 243.966 L734.318 243.928 L734.322 243.890 L734.329 243.853 L734.339 243.816 L734.351 243.779 L734.366 243.744 L734.383 243.709 L734.403 243.676 L734.425 243.643 L734.450 243.612 L734.476 243.583 L734.505 243.555 L734.536 243.529 L734.569 243.505 L734.603 243.483 L734.639 243.463 L734.676 243.445 L734.714 243.429 L734.754 243.416 L734.794 243.405 L734.835 243.396 L734.877 243.390 L734.918 243.386 L734.961 243.385 L740.167 243.385 L740.210 243.387 L740.252 243.390 L740.295 243.397 L740.336 243.406 L740.377 243.417 L740.417 243.431 L740.456 243.447 L740.494 243.466 L740.530 243.486 L740.565 243.509 L740.598 243.534 L740.628 243.561 L740.657 243.589 L740.684 243.620 L740.708 243.652 L740.730 243.685 L748.981 257.141 L757.208 243.685 L757.230 243.652 L757.254 243.620 L757.281 243.590 L757.310 243.561 L757.341 243.534 L757.373 243.510 L757.408 243.487 L757.444 243.466 L757.482 243.447 L757.521 243.431 L757.561 243.417 L757.602 243.406 L757.644 243.397 L757.686 243.390 L757.729 243.387 L757.772 243.385 L763.026 243.385 L763.069 243.386 L763.111 243.390 L763.152 243.396 L763.193 243.405 L763.234 243.416 L763.273 243.430 L763.311 243.445 L763.349 243.463 L763.384 243.483 L763.419 243.505 L763.451 243.530 L763.482 243.556 L763.511 243.583 L763.538 243.613 L763.562 243.644 L763.584 243.676 L763.604 243.710 L763.621 243.744 L763.636 243.780 L763.648 243.816 L763.658 243.853 L763.665 243.891 L763.669 243.929 L763.670 243.967 L763.668 244.004 L763.664 244.042 L763.657 244.080 L763.647 244.117 L763.635 244.153 L763.620 244.189 L763.603 244.223 L763.583 244.257 L752.071 262.076 L752.071 276.536 L752.069 276.574 L752.065 276.612 L752.058 276.649 L752.049 276.686 L752.037 276.722 L752.022 276.758 L752.004 276.792 L751.984 276.826 L751.962 276.858 L751.938 276.889 L751.911 276.918 L751.882 276.946 L751.851 276.972 L751.819 276.996 L751.785 277.018 L751.749 277.038 L751.712 277.056 L751.673 277.072 L751.634 277.085 L751.594 277.096 L751.553 277.105 L751.511 277.111 L751.469 277.114 L751.427 277.116 L746.511 277.116 L746.469 277.114 L746.427 277.111 L746.386 277.105 L746.345 277.096 L746.305 277.085 L746.265 277.072 L746.227 277.056 L746.190 277.038 L746.154 277.018 L746.120 276.996 L746.087 276.972 L746.056 276.946 L746.028 276.918 L746.001 276.889 L745.976 276.858 L745.954 276.826 L745.934 276.792 L745.917 276.758 L745.902 276.722 L745.890 276.686 L745.880 276.649 L745.873 276.612 L745.869 276.574 L745.868 276.536 L745.868 262.075 Z M 791.7752 276.8750 C 789.0486 276.6719 785.7830 275.8282 783.3767 274.6953 C 781.8064 273.9532 781.7166 273.6250 782.4705 271.2657 C 783.1932 269.0118 783.2596 268.9961 786.1853 270.3125 C 786.9432 270.6524 788.0213 271.0235 789.8650 271.5782 C 791.4510 272.0586 795.0252 272.1797 796.7713 271.8203 C 800.0369 271.1368 801.5721 268.7110 800.5096 265.8711 C 799.9627 264.4258 798.6267 263.6485 794.0955 262.1289 C 785.2947 259.1680 782.9158 257.1094 782.5682 252.1524 C 782.0760 245.1250 789.4080 241.1407 799.2947 243.0743 C 800.0447 243.2149 800.9353 243.3868 801.2791 243.4414 C 801.6228 243.5000 802.1111 243.6328 802.3572 243.7383 C 802.6033 243.8516 803.1658 244.0625 803.5994 244.2188 C 805.4978 244.8868 805.6619 245.2461 805.0603 247.4024 C 804.4471 249.6485 803.9666 249.9649 802.3807 249.1993 C 797.6775 246.9297 791.6697 246.7344 789.5721 248.7735 C 787.7596 250.5391 788.5330 253.8360 790.9744 254.7657 C 791.2517 254.8711 791.7283 255.0625 792.0369 255.2071 C 792.3533 255.3477 793.7830 255.8516 795.2205 256.3282 C 801.2127 258.3164 802.7908 259.0860 804.6111 260.9532 C 806.6736 263.0625 807.3455 265.9844 806.5603 269.4610 C 805.3924 274.6211 799.7283 277.4610 791.7752 276.8750 Z M 838.6578 276.2227 C 838.0054 276.1914 837.6109 276.1250 837.5054 276.0352 C 837.0719 275.6758 837.0914 276.2071 837.0328 261.9922 C 837.0015 254.6133 836.9429 248.5118 836.9000 248.4219 C 836.6070 247.8750 836.8375 247.9024 831.5640 247.8516 C 825.3922 247.7930 825.7906 247.9571 825.8062 245.4610 C 825.8219 243.8828 825.9039 243.5743 826.4273 243.2969 C 826.8531 243.0743 853.2320 243.0508 853.6890 243.2735 C 854.2984 243.5664 854.3570 243.7696 854.3179 245.4453 C 854.2750 248.0078 854.7906 247.7930 848.5601 247.8516 C 844.9508 247.8907 843.5328 247.9258 843.3922 248.0078 C 842.8961 248.2930 842.9273 247.4336 842.9117 261.8282 C 842.8883 275.1914 842.8883 275.2032 842.6969 275.6094 C 842.3492 276.3282 841.8726 276.4024 838.6578 276.2227 Z M872.837 243.965 L872.839 243.927 L872.843 243.889 L872.850 243.852 L872.859 243.815 L872.871 243.779 L872.886 243.743 L872.904 243.709 L872.923 243.675 L872.946 243.643 L872.970 243.612 L872.997 243.583 L873.026 243.555 L873.056 243.529 L873.089 243.505 L873.123 243.483 L873.159 243.463 L873.196 243.445 L873.235 243.429 L873.274 243.416 L873.314 243.405 L873.355 243.396 L873.397 243.390 L873.439 243.386 L873.481 243.385 L894.936 243.385 L894.978 243.386 L895.020 243.390 L895.061 243.396 L895.102 243.405 L895.143 243.416 L895.182 243.429 L895.220 243.445 L895.258 243.463 L895.293 243.483 L895.328 243.505 L895.360 243.529 L895.391 243.555 L895.420 243.583 L895.446 243.612 L895.471 243.643 L895.493 243.675 L895.513 243.709 L895.530 243.743 L895.545 243.779 L895.557 243.815 L895.567 243.852 L895.574 243.889 L895.578 243.927 L895.579 243.965 L895.579 247.674 L895.578 247.712 L895.574 247.749 L895.567 247.787 L895.557 247.824 L895.545 247.860 L895.530 247.896 L895.513 247.930 L895.493 247.964 L895.471 247.996 L895.446 248.027 L895.420 248.056 L895.391 248.084 L895.360 248.110 L895.328 248.134 L895.293 248.156 L895.258 248.176 L895.220 248.194 L895.182 248.209 L895.143 248.223 L895.102 248.234 L895.061 248.242 L895.020 248.248 L894.978 248.252 L894.936 248.253 L879.016 248.253 L879.016 256.736 L894.209 256.736 L894.251 256.738 L894.293 256.741 L894.335 256.748 L894.376 256.756 L894.416 256.767 L894.456 256.781 L894.494 256.796 L894.531 256.814 L894.567 256.834 L894.601 256.856 L894.634 256.880 L894.664 256.906 L894.693 256.934 L894.720 256.963 L894.744 256.994 L894.767 257.026 L894.786 257.060 L894.804 257.094 L894.819 257.130 L894.831 257.166 L894.840 257.203 L894.847 257.241 L894.851 257.278 L894.853 257.316 L894.853 261.025 L894.851 261.063 L894.847 261.101 L894.840 261.138 L894.831 261.175 L894.819 261.211 L894.804 261.247 L894.786 261.281 L894.767 261.315 L894.744 261.347 L894.720 261.378 L894.693 261.407 L894.664 261.435 L894.634 261.461 L894.601 261.485 L894.567 261.507 L894.531 261.527 L894.494 261.545 L894.456 261.561 L894.416 261.574 L894.376 261.585 L894.335 261.594 L894.293 261.600 L894.251 261.603 L894.209 261.605 L879.016 261.605 L879.016 272.248 L895.396 272.248 L895.438 272.249 L895.480 272.252 L895.521 272.259 L895.562 272.267 L895.603 272.278 L895.642 272.292 L895.680 272.307 L895.718 272.325 L895.753 272.345 L895.788 272.367 L895.820 272.391 L895.851 272.417 L895.880 272.445 L895.906 272.474 L895.931 272.505 L895.953 272.537 L895.973 272.571 L895.990 272.605 L896.005 272.641 L896.017 272.677 L896.027 272.714 L896.034 272.752 L896.038 272.789 L896.039 272.827 L896.039 276.536 L896.038 276.574 L896.034 276.612 L896.027 276.649 L896.017 276.686 L896.005 276.722 L895.990 276.758 L895.973 276.792 L895.953 276.826 L895.931 276.858 L895.906 276.889 L895.880 276.918 L895.851 276.946 L895.820 276.972 L895.788 276.996 L895.753 277.018 L895.718 277.038 L895.680 277.056 L895.642 277.072 L895.603 277.085 L895.562 277.096 L895.521 277.105 L895.480 277.111 L895.438 277.114 L895.396 277.116 L873.481 277.116 L873.439 277.114 L873.397 277.111 L873.355 277.105 L873.314 277.096 L873.274 277.085 L873.235 277.072 L873.196 277.056 L873.159 277.038 L873.123 277.018 L873.089 276.996 L873.056 276.972 L873.026 276.946 L872.997 276.918 L872.970 276.889 L872.946 276.858 L872.923 276.826 L872.904 276.792 L872.886 276.758 L872.871 276.722 L872.859 276.686 L872.850 276.649 L872.843 276.612 L872.839 276.574 L872.837 276.536 Z M914.086 243.965 L914.087 243.927 L914.092 243.889 L914.098 243.852 L914.108 243.815 L914.120 243.779 L914.135 243.743 L914.152 243.709 L914.172 243.675 L914.195 243.643 L914.219 243.612 L914.246 243.583 L914.275 243.555 L914.305 243.529 L914.338 243.505 L914.372 243.483 L914.408 243.463 L914.445 243.445 L914.483 243.429 L914.523 243.416 L914.563 243.405 L914.604 243.396 L914.646 243.390 L914.688 243.386 L914.730 243.385 L921.268 243.385 L921.310 243.386 L921.352 243.390 L921.393 243.396 L921.434 243.405 L921.475 243.416 L921.514 243.429 L921.552 243.445 L921.590 243.463 L921.625 243.483 L921.660 243.505 L921.692 243.529 L921.723 243.555 L921.752 243.583 L921.778 243.612 L921.803 243.643 L921.825 243.675 L921.845 243.709 L921.862 243.743 L921.877 243.779 L927.518 258.748 L933.203 243.777 L933.217 243.742 L933.235 243.707 L933.255 243.674 L933.277 243.642 L933.302 243.611 L933.328 243.582 L933.357 243.554 L933.388 243.529 L933.420 243.505 L933.455 243.483 L933.490 243.463 L933.527 243.445 L933.566 243.429 L933.605 243.416 L933.645 243.405 L933.686 243.396 L933.728 243.390 L933.769 243.386 L933.811 243.385 L940.374 243.385 L940.416 243.386 L940.458 243.390 L940.499 243.396 L940.540 243.405 L940.581 243.416 L940.620 243.429 L940.658 243.445 L940.696 243.463 L940.731 243.483 L940.766 243.505 L940.798 243.529 L940.829 243.555 L940.858 243.583 L940.884 243.612 L940.909 243.643 L940.931 243.675 L940.951 243.709 L940.968 243.743 L940.983 243.779 L940.995 243.815 L941.005 243.852 L941.012 243.889 L941.016 243.927 L941.017 243.965 L941.017 276.536 L941.016 276.574 L941.012 276.612 L941.005 276.649 L940.995 276.686 L940.983 276.722 L940.968 276.758 L940.951 276.792 L940.931 276.826 L940.909 276.858 L940.884 276.889 L940.858 276.918 L940.829 276.946 L940.798 276.972 L940.766 276.996 L940.731 277.018 L940.696 277.038 L940.658 277.056 L940.620 277.072 L940.581 277.085 L940.540 277.096 L940.499 277.105 L940.458 277.111 L940.416 277.114 L940.374 277.116 L935.846 277.116 L935.803 277.114 L935.762 277.111 L935.720 277.105 L935.679 277.096 L935.639 277.085 L935.599 277.072 L935.561 277.056 L935.524 277.038 L935.488 277.018 L935.454 276.996 L935.421 276.972 L935.391 276.946 L935.362 276.918 L935.335 276.889 L935.310 276.858 L935.288 276.826 L935.268 276.792 L935.251 276.758 L935.236 276.722 L935.224 276.686 L935.214 276.649 L935.208 276.612 L935.203 276.574 L935.202 276.536 L935.202 251.287 L930.014 265.116 L929.999 265.151 L929.982 265.186 L929.962 265.219 L929.940 265.252 L929.915 265.282 L929.888 265.312 L929.860 265.340 L929.829 265.366 L929.796 265.390 L929.762 265.412 L929.726 265.432 L929.689 265.450 L929.651 265.466 L929.611 265.479 L929.571 265.490 L929.530 265.499 L929.488 265.505 L929.446 265.508 L929.404 265.510 L925.699 265.510 L925.657 265.508 L925.615 265.505 L925.574 265.499 L925.533 265.490 L925.492 265.479 L925.453 265.466 L925.415 265.450 L925.377 265.432 L925.342 265.412 L925.307 265.390 L925.275 265.366 L925.244 265.340 L925.215 265.312 L925.189 265.283 L925.164 265.252 L925.142 265.220 L925.122 265.186 L925.105 265.152 L925.090 265.116 L919.877 251.274 L919.877 276.536 L919.876 276.574 L919.872 276.612 L919.865 276.649 L919.855 276.686 L919.843 276.722 L919.828 276.758 L919.811 276.792 L919.791 276.826 L919.769 276.858 L919.744 276.889 L919.718 276.918 L919.689 276.946 L919.658 276.972 L919.625 276.996 L919.591 277.018 L919.555 277.038 L919.518 277.056 L919.480 277.072 L919.441 277.085 L919.400 277.096 L919.359 277.105 L919.318 277.111 L919.276 277.114 L919.234 277.116 L914.730 277.116 L914.688 277.114 L914.646 277.111 L914.604 277.105 L914.563 277.096 L914.523 277.085 L914.483 277.072 L914.445 277.056 L914.408 277.038 L914.372 277.018 L914.338 276.996 L914.305 276.972 L914.275 276.946 L914.246 276.918 L914.219 276.889 L914.195 276.858 L914.172 276.826 L914.152 276.792 L914.135 276.758 L914.120 276.722 L914.108 276.686 L914.098 276.649 L914.092 276.612 L914.087 276.574 L914.086 276.536 Z"/></svg>