<svg xmlns="http://www.w3.org/2000/svg" viewBox="-34.653 -34.528 1066.419 369.347"><path fill-rule="evenodd" fill="#ff7800" d="M 22.4766 22.6016 L 172.8966 22.6016 L 172.8966 69.2297 L 121.0026 69.2297 L 121.0026 201.6016 L 74.3745 201.6016 L 74.3745 69.2297 L 22.4766 69.2297 Z M 22.4766 22.6016"/><path fill-rule="evenodd" fill="#ff7800" d="M 190.9488 22.6016 L 303.7628 22.6016 L 303.7628 69.2297 L 237.5808 69.2297 L 237.5808 88.7836 L 290.2277 88.7836 L 290.2277 135.4156 L 237.5808 135.4156 L 237.5808 154.9695 L 303.7628 154.9695 L 303.7628 201.6016 L 190.9488 201.6016 Z M 190.9488 22.6016"/><path fill-rule="evenodd" fill="#ff7800" d="M 321.8150 22.6016 L 472.2350 22.6016 L 472.2350 69.2297 L 420.3410 69.2297 L 420.3410 201.6016 L 373.7090 201.6016 L 373.7090 69.2297 L 321.8150 69.2297 Z M 321.8150 22.6016"/><path fill-rule="evenodd" fill="#ffffff" d="M 490.2832 22.6016 L 565.4952 22.6016 C 567.3420 22.6016 569.1849 22.6917 571.0238 22.8721 C 572.8627 23.0525 574.6860 23.3230 576.4975 23.6837 C 578.3129 24.0445 580.1008 24.4915 581.8692 25.0286 C 583.6376 25.5658 585.3745 26.1853 587.0802 26.8950 C 588.7858 27.6008 590.4561 28.3889 592.0833 29.2594 C 593.7144 30.1337 595.2985 31.0787 596.8316 32.1060 C 598.3686 33.1333 599.8508 34.2312 601.2780 35.4035 C 602.7052 36.5759 604.0736 37.8149 605.3793 39.1206 C 606.6850 40.4263 607.9280 41.7947 609.0964 43.2219 C 610.2688 44.6531 611.3706 46.1352 612.3939 47.6683 C 613.4212 49.2053 614.3701 50.7894 615.2406 52.4166 C 616.1110 54.0477 616.9030 55.7141 617.6088 57.4237 C 618.3146 59.1293 618.9380 60.8663 619.4713 62.6346 C 620.0085 64.4030 620.4594 66.1910 620.8201 68.0024 C 621.1769 69.8139 621.4474 71.6411 621.6317 73.4800 C 621.8121 75.3190 621.9023 77.1618 621.9023 79.0086 C 621.9023 80.8554 621.8121 82.6982 621.6317 84.5372 C 621.4474 86.3761 621.1769 88.1993 620.8201 90.0108 C 620.4594 91.8262 620.0085 93.6142 619.4713 95.3826 C 618.9380 97.1509 618.3146 98.8879 617.6088 100.5935 C 616.9030 102.2991 616.1110 103.9695 615.2406 105.5967 C 614.3701 107.2278 613.4212 108.8119 612.3939 110.3450 C 611.3706 111.8820 610.2688 113.3641 609.0964 114.7913 C 607.9280 116.2225 606.6850 117.5870 605.3793 118.8927 C 604.0736 120.2023 602.7052 121.4413 601.2780 122.6098 C 599.8508 123.7821 598.3686 124.8839 596.8316 125.9073 C 595.2985 126.9346 593.7144 127.8835 592.0833 128.7539 C 590.4561 129.6244 588.7858 130.4164 587.0802 131.1222 C 585.3745 131.8279 583.6376 132.4514 581.8692 132.9846 C 580.1008 133.5218 578.3129 133.9727 576.4975 134.3334 C 574.6860 134.6903 572.8627 134.9647 571.0238 135.1451 C 569.1849 135.3255 567.3420 135.4156 565.4952 135.4156 L 490.2832 135.4156 Z M 536.9153 69.2297 L 565.4952 69.2297 C 566.1383 69.2297 566.7735 69.2924 567.4008 69.4179 C 568.0321 69.5434 568.6438 69.7277 569.2358 69.9747 C 569.8279 70.2217 570.3925 70.5236 570.9258 70.8765 C 571.4590 71.2333 571.9531 71.6411 572.4079 72.0959 C 572.8627 72.5468 573.2666 73.0409 573.6234 73.5741 C 573.9802 74.1113 574.2821 74.6720 574.5292 75.2680 C 574.7723 75.8601 574.9605 76.4717 575.0820 77.0991 C 575.2075 77.7304 575.2702 78.3656 575.2702 79.0086 C 575.2702 79.6516 575.2075 80.2868 575.0820 80.9142 C 574.9605 81.5455 574.7723 82.1571 574.5292 82.7492 C 574.2821 83.3413 573.9802 83.9059 573.6234 84.4391 C 573.2666 84.9724 572.8627 85.4664 572.4079 85.9213 C 571.9531 86.3761 571.4590 86.7800 570.9258 87.1368 C 570.3925 87.4936 569.8279 87.7955 569.2358 88.0425 C 568.6438 88.2856 568.0321 88.4738 567.4008 88.5993 C 566.7735 88.7208 566.1383 88.7836 565.4952 88.7836 L 536.9153 88.7836 Z M 536.9153 69.2297"/><path fill-rule="evenodd" fill="#ffffff" d="M 531.6495 134.6628 L 580.5361 134.6628 L 627.9170 201.6016 L 579.0304 201.6016 Z M 531.6495 134.6628"/><path fill-rule="evenodd" fill="#ffffff" d="M 639.9544 22.6016 L 686.5826 22.6016 L 686.5826 201.6016 L 639.9544 201.6016 Z M 639.9544 22.6016"/><path fill-rule="evenodd" fill="#ffffff" d="M 704.6347 22.6016 L 772.3223 22.6016 C 774.1691 22.6016 776.0120 22.6917 777.8509 22.8721 C 779.6898 23.0525 781.5131 23.3230 783.3285 23.6837 C 785.1400 24.0445 786.9280 24.4915 788.6963 25.0286 C 790.4647 25.5658 792.2017 26.1853 793.9073 26.8950 C 795.6168 27.6008 797.2832 28.3889 798.9104 29.2594 C 800.5416 30.1337 802.1256 31.0787 803.6587 32.1060 C 805.1957 33.1333 806.6779 34.2312 808.1051 35.4035 C 809.5362 36.5759 810.9007 37.8149 812.2064 39.1206 C 813.5160 40.4263 814.7551 41.7947 815.9274 43.2219 C 817.0959 44.6531 818.1977 46.1352 819.2250 47.6683 C 820.2483 49.2053 821.1972 50.7894 822.0677 52.4166 C 822.9381 54.0477 823.7302 55.7141 824.4359 57.4237 C 825.1417 59.1293 825.7651 60.8663 826.3023 62.6346 C 826.8356 64.4030 827.2865 66.1910 827.6472 68.0024 C 828.0079 69.8139 828.2785 71.6411 828.4588 73.4800 C 828.6392 75.3190 828.7294 77.1618 828.7294 79.0086 C 828.7294 80.8554 828.6392 82.6982 828.4588 84.5372 C 828.2785 86.3761 828.0079 88.1993 827.6472 90.0108 C 827.2865 91.8262 826.8356 93.6142 826.3023 95.3826 C 825.7651 97.1509 825.1417 98.8879 824.4359 100.5935 C 823.7302 102.2991 822.9381 103.9695 822.0677 105.5967 C 821.1972 107.2278 820.2483 108.8119 819.2250 110.3450 C 818.1977 111.8820 817.0959 113.3641 815.9274 114.7913 C 814.7551 116.2225 813.5160 117.5870 812.2064 118.8927 C 810.9007 120.2023 809.5362 121.4413 808.1051 122.6098 C 806.6779 123.7821 805.1957 124.8839 803.6587 125.9073 C 802.1256 126.9346 800.5416 127.8835 798.9104 128.7539 C 797.2832 129.6244 795.6168 130.4164 793.9073 131.1222 C 792.2017 131.8279 790.4647 132.4514 788.6963 132.9846 C 786.9280 133.5218 785.1400 133.9727 783.3285 134.3334 C 781.5131 134.6903 779.6898 134.9647 777.8509 135.1451 C 776.0120 135.3255 774.1691 135.4156 772.3223 135.4156 L 704.6347 135.4156 Z M 751.2628 69.2297 L 772.3223 69.2297 C 772.9654 69.2297 773.6006 69.2924 774.2279 69.4179 C 774.8592 69.5434 775.4709 69.7277 776.0630 69.9747 C 776.6550 70.2217 777.2196 70.5236 777.7529 70.8765 C 778.2861 71.2333 778.7802 71.6411 779.2350 72.0959 C 779.6898 72.5468 780.0937 73.0409 780.4505 73.5741 C 780.8073 74.1113 781.1092 74.6720 781.3563 75.2680 C 781.5994 75.8601 781.7876 76.4717 781.9130 77.0991 C 782.0385 77.7304 782.1012 78.3656 782.1012 79.0086 C 782.1012 79.6516 782.0385 80.2868 781.9130 80.9142 C 781.7876 81.5455 781.5994 82.1571 781.3563 82.7492 C 781.1092 83.3413 780.8073 83.9059 780.4505 84.4391 C 780.0937 84.9724 779.6898 85.4664 779.2350 85.9213 C 778.7802 86.3761 778.2861 86.7800 777.7529 87.1368 C 777.2196 87.4936 776.6550 87.7955 776.0630 88.0425 C 775.4709 88.2856 774.8592 88.4738 774.2279 88.5993 C 773.6006 88.7208 772.9654 88.7836 772.3223 88.7836 L 751.2628 88.7836 Z M 704.6347 135.4156 L 751.2628 135.4156 L 751.2628 201.6016 L 704.6347 201.6016 Z M 704.6347 135.4156"/><path fill-rule="evenodd" fill="#ffffff" d="M 846.7815 22.6016 L 893.4097 22.6016 L 893.4097 88.7836 L 928.0083 88.7836 L 928.0083 22.6016 L 974.6364 22.6016 L 974.6364 201.6016 L 928.0083 201.6016 L 928.0083 135.4156 L 893.4097 135.4156 L 893.4097 201.6016 L 846.7815 201.6016 Z M 846.7815 22.6016"/><path fill-rule="evenodd" fill="#ffffff" d="M96.887 263.613 L96.885 263.633 L96.748 264.899 L96.745 264.921 L96.569 266.124 L96.565 266.149 L96.349 267.288 L96.343 267.315 L96.089 268.392 L96.081 268.422 L95.787 269.436 L95.777 269.467 L95.444 270.418 L95.430 270.452 L95.058 271.341 L95.042 271.377 L94.630 272.202 L94.609 272.241 L94.159 273.003 L94.133 273.043 L93.642 273.743 L93.612 273.783 L93.080 274.423 L93.044 274.462 L92.471 275.041 L92.431 275.078 L91.817 275.596 L91.773 275.630 L91.118 276.087 L91.070 276.117 L90.374 276.513 L90.325 276.538 L89.587 276.873 L89.538 276.893 L88.759 277.167 L88.710 277.182 L87.891 277.395 L87.844 277.405 L86.983 277.558 L86.938 277.564 L86.036 277.655 L85.995 277.658 L85.052 277.689 L85.013 277.689 L84.070 277.658 L84.028 277.656 L83.127 277.565 L83.082 277.559 L82.222 277.407 L82.175 277.397 L81.356 277.185 L81.307 277.170 L80.529 276.897 L80.480 276.877 L79.743 276.544 L79.694 276.519 L78.999 276.125 L78.951 276.095 L78.297 275.641 L78.253 275.607 L77.640 275.091 L77.600 275.054 L77.028 274.478 L76.993 274.439 L76.462 273.803 L76.432 273.763 L75.943 273.066 L75.917 273.026 L75.468 272.267 L75.447 272.228 L75.037 271.405 L75.021 271.369 L74.650 270.482 L74.637 270.448 L74.305 269.497 L74.295 269.465 L74.002 268.451 L73.994 268.422 L73.741 267.343 L73.735 267.316 L73.520 266.174 L73.516 266.150 L73.341 264.944 L73.338 264.921 L73.201 263.651 L73.199 263.631 L73.102 262.297 L73.100 262.278 L73.042 260.881 L73.041 260.864 L73.022 259.403 L73.022 259.386 L73.042 257.929 L73.042 257.911 L73.101 256.517 L73.102 256.498 L73.200 255.167 L73.202 255.146 L73.339 253.878 L73.342 253.855 L73.518 252.650 L73.522 252.626 L73.738 251.484 L73.744 251.457 L73.998 250.378 L74.006 250.349 L74.300 249.334 L74.310 249.302 L74.643 248.350 L74.656 248.315 L75.029 247.426 L75.045 247.390 L75.457 246.564 L75.478 246.526 L75.928 245.763 L75.954 245.724 L76.445 245.023 L76.475 244.983 L77.006 244.343 L77.042 244.305 L77.614 243.726 L77.654 243.689 L78.267 243.171 L78.311 243.137 L78.965 242.680 L79.012 242.650 L79.707 242.254 L79.756 242.229 L80.491 241.894 L80.541 241.874 L81.317 241.599 L81.366 241.585 L82.183 241.371 L82.230 241.361 L83.088 241.209 L83.133 241.202 L84.031 241.111 L84.073 241.108 L85.012 241.078 L85.052 241.078 L85.995 241.108 L86.036 241.111 L86.938 241.202 L86.983 241.208 L87.844 241.361 L87.891 241.371 L88.710 241.584 L88.759 241.599 L89.538 241.874 L89.587 241.893 L90.325 242.229 L90.374 242.254 L91.070 242.650 L91.118 242.679 L91.773 243.136 L91.817 243.170 L92.431 243.688 L92.471 243.725 L93.044 244.304 L93.080 244.343 L93.612 244.983 L93.642 245.023 L94.133 245.724 L94.159 245.763 L94.609 246.526 L94.630 246.564 L95.042 247.390 L95.058 247.426 L95.431 248.315 L95.444 248.350 L95.777 249.302 L95.787 249.334 L96.081 250.349 L96.089 250.378 L96.343 251.457 L96.349 251.484 L96.565 252.626 L96.569 252.650 L96.745 253.855 L96.748 253.878 L96.885 255.146 L96.887 255.167 L96.985 256.498 L96.986 256.517 L97.045 257.911 L97.046 257.929 L97.065 259.386 L97.065 259.403 L97.046 260.857 L97.045 260.874 L96.986 262.265 L96.985 262.284 Z M90.765 253.943 L90.649 253.037 L90.514 252.193 L90.358 251.411 L90.182 250.692 L89.988 250.037 L89.775 249.445 L89.546 248.917 L89.297 248.444 L89.026 248.018 L88.734 247.637 L88.421 247.300 L88.087 247.005 L87.731 246.751 L87.350 246.536 L86.945 246.359 L86.511 246.221 L86.049 246.121 L85.556 246.060 L85.032 246.040 L84.512 246.060 L84.023 246.121 L83.564 246.221 L83.133 246.359 L82.730 246.535 L82.352 246.750 L81.997 247.004 L81.664 247.299 L81.352 247.636 L81.060 248.017 L80.790 248.444 L80.541 248.917 L80.312 249.445 L80.099 250.037 L79.905 250.692 L79.729 251.411 L79.573 252.193 L79.438 253.037 L79.322 253.943 L79.227 254.911 L79.153 255.940 L79.101 257.031 L79.069 258.182 L79.058 259.395 L79.069 260.603 L79.101 261.751 L79.153 262.839 L79.227 263.865 L79.322 264.831 L79.438 265.735 L79.573 266.577 L79.729 267.357 L79.905 268.075 L80.099 268.730 L80.312 269.321 L80.541 269.849 L80.790 270.322 L81.060 270.749 L81.352 271.130 L81.664 271.467 L81.997 271.762 L82.352 272.016 L82.730 272.231 L83.133 272.407 L83.564 272.545 L84.023 272.645 L84.512 272.706 L85.032 272.726 L85.556 272.706 L86.049 272.645 L86.512 272.546 L86.945 272.408 L87.351 272.232 L87.731 272.018 L88.088 271.765 L88.422 271.471 L88.735 271.135 L89.027 270.756 L89.297 270.331 L89.546 269.860 L89.775 269.334 L89.988 268.744 L90.182 268.090 L90.358 267.373 L90.514 266.592 L90.649 265.749 L90.765 264.844 L90.860 263.877 L90.934 262.848 L90.986 261.758 L91.018 260.607 L91.029 259.395 L91.018 258.182 L90.986 257.031 L90.934 255.940 L90.860 254.911 Z M291.756 263.613 L291.754 263.633 L291.617 264.899 L291.614 264.921 L291.437 266.124 L291.433 266.149 L291.218 267.288 L291.212 267.315 L290.957 268.392 L290.949 268.422 L290.655 269.436 L290.645 269.467 L290.312 270.418 L290.299 270.452 L289.927 271.341 L289.910 271.377 L289.499 272.202 L289.478 272.241 L289.027 273.003 L289.002 273.043 L288.511 273.743 L288.480 273.783 L287.948 274.423 L287.913 274.462 L287.340 275.041 L287.300 275.078 L286.686 275.596 L286.641 275.630 L285.986 276.087 L285.939 276.117 L285.243 276.513 L285.194 276.538 L284.456 276.873 L284.406 276.893 L283.628 277.167 L283.579 277.182 L282.759 277.395 L282.712 277.405 L281.851 277.558 L281.807 277.564 L280.905 277.655 L280.863 277.658 L279.920 277.689 L279.881 277.689 L278.938 277.658 L278.897 277.656 L277.995 277.565 L277.951 277.559 L277.090 277.407 L277.043 277.397 L276.224 277.185 L276.175 277.170 L275.398 276.897 L275.348 276.877 L274.611 276.544 L274.562 276.519 L273.867 276.125 L273.820 276.095 L273.166 275.641 L273.122 275.607 L272.509 275.091 L272.468 275.054 L271.897 274.478 L271.861 274.439 L271.331 273.803 L271.300 273.763 L270.811 273.066 L270.786 273.026 L270.337 272.267 L270.316 272.228 L269.906 271.405 L269.889 271.369 L269.518 270.482 L269.505 270.448 L269.174 269.497 L269.163 269.465 L268.871 268.451 L268.863 268.422 L268.609 267.343 L268.604 267.316 L268.389 266.174 L268.385 266.150 L268.209 264.944 L268.206 264.921 L268.070 263.651 L268.068 263.631 L267.970 262.297 L267.969 262.278 L267.910 260.881 L267.910 260.864 L267.890 259.403 L267.890 259.386 L267.910 257.929 L267.911 257.911 L267.969 256.517 L267.970 256.498 L268.068 255.167 L268.070 255.146 L268.208 253.878 L268.210 253.855 L268.387 252.650 L268.391 252.626 L268.607 251.484 L268.612 251.457 L268.867 250.378 L268.875 250.349 L269.169 249.334 L269.179 249.302 L269.512 248.350 L269.525 248.315 L269.897 247.426 L269.914 247.390 L270.326 246.564 L270.346 246.526 L270.797 245.763 L270.822 245.724 L271.313 245.023 L271.344 244.983 L271.875 244.343 L271.910 244.305 L272.483 243.726 L272.523 243.689 L273.136 243.171 L273.180 243.137 L273.834 242.680 L273.881 242.650 L274.575 242.254 L274.624 242.229 L275.360 241.894 L275.409 241.874 L276.186 241.599 L276.234 241.585 L277.051 241.371 L277.099 241.361 L277.956 241.209 L278.001 241.202 L278.900 241.111 L278.942 241.108 L279.881 241.078 L279.920 241.078 L280.863 241.108 L280.905 241.111 L281.807 241.202 L281.851 241.208 L282.712 241.361 L282.759 241.371 L283.579 241.584 L283.628 241.599 L284.406 241.874 L284.456 241.893 L285.194 242.229 L285.243 242.254 L285.939 242.650 L285.986 242.679 L286.641 243.136 L286.686 243.170 L287.300 243.688 L287.340 243.725 L287.913 244.304 L287.948 244.343 L288.480 244.983 L288.511 245.023 L289.002 245.724 L289.027 245.763 L289.478 246.526 L289.499 246.564 L289.910 247.390 L289.927 247.426 L290.299 248.315 L290.312 248.350 L290.645 249.302 L290.655 249.334 L290.949 250.349 L290.957 250.378 L291.212 251.457 L291.218 251.484 L291.433 252.626 L291.437 252.650 L291.614 253.855 L291.617 253.878 L291.754 255.146 L291.756 255.167 L291.854 256.498 L291.855 256.517 L291.914 257.911 L291.914 257.929 L291.934 259.386 L291.934 259.403 L291.914 260.857 L291.914 260.874 L291.855 262.265 L291.854 262.284 Z M285.633 253.943 L285.518 253.037 L285.382 252.193 L285.226 251.411 L285.051 250.692 L284.856 250.037 L284.644 249.445 L284.414 248.917 L284.166 248.444 L283.895 248.018 L283.603 247.637 L283.290 247.300 L282.956 247.005 L282.599 246.751 L282.219 246.536 L281.813 246.359 L281.380 246.221 L280.917 246.121 L280.424 246.060 L279.901 246.040 L279.381 246.060 L278.891 246.121 L278.432 246.221 L278.002 246.359 L277.599 246.535 L277.220 246.750 L276.865 247.004 L276.532 247.299 L276.220 247.636 L275.929 248.017 L275.659 248.444 L275.410 248.917 L275.180 249.445 L274.968 250.037 L274.773 250.692 L274.598 251.411 L274.442 252.193 L274.306 253.037 L274.191 253.943 L274.096 254.911 L274.022 255.940 L273.969 257.031 L273.937 258.182 L273.927 259.395 L273.937 260.603 L273.969 261.751 L274.022 262.839 L274.096 263.865 L274.191 264.831 L274.306 265.735 L274.442 266.577 L274.598 267.357 L274.773 268.075 L274.968 268.730 L275.180 269.321 L275.410 269.849 L275.659 270.322 L275.929 270.749 L276.220 271.130 L276.532 271.467 L276.865 271.762 L277.220 272.016 L277.599 272.231 L278.002 272.407 L278.432 272.545 L278.891 272.645 L279.381 272.706 L279.901 272.726 L280.425 272.706 L280.918 272.645 L281.380 272.546 L281.814 272.408 L282.220 272.232 L282.600 272.018 L282.956 271.765 L283.291 271.471 L283.604 271.135 L283.895 270.756 L284.166 270.331 L284.415 269.860 L284.644 269.334 L284.856 268.744 L285.051 268.090 L285.226 267.373 L285.382 266.592 L285.518 265.749 L285.633 264.844 L285.728 263.877 L285.802 262.848 L285.855 261.758 L285.887 260.607 L285.897 259.395 L285.887 258.182 L285.855 257.031 L285.802 255.940 L285.728 254.911 Z M22.498 242.460 L22.488 242.421 L22.482 242.382 L22.478 242.342 L22.477 242.302 L22.478 242.263 L22.482 242.223 L22.488 242.184 L22.497 242.145 L22.509 242.107 L22.523 242.070 L22.539 242.033 L22.558 241.998 L22.579 241.965 L22.602 241.932 L22.627 241.901 L22.654 241.872 L22.683 241.845 L22.714 241.820 L22.746 241.797 L22.780 241.776 L22.815 241.757 L22.851 241.741 L22.889 241.727 L22.927 241.715 L22.965 241.706 L23.005 241.700 L23.044 241.696 L23.084 241.694 L27.997 241.694 L28.037 241.696 L28.078 241.700 L28.118 241.706 L28.157 241.716 L28.196 241.728 L28.233 241.742 L28.270 241.759 L28.306 241.779 L28.340 241.800 L28.372 241.824 L28.403 241.850 L28.432 241.878 L28.460 241.908 L28.485 241.940 L28.508 241.973 L28.529 242.008 L36.314 256.103 L44.078 242.009 L44.099 241.974 L44.122 241.940 L44.147 241.909 L44.174 241.879 L44.203 241.851 L44.234 241.824 L44.267 241.801 L44.301 241.779 L44.337 241.759 L44.373 241.742 L44.411 241.728 L44.450 241.716 L44.489 241.706 L44.529 241.700 L44.570 241.696 L44.610 241.694 L49.569 241.694 L49.609 241.696 L49.648 241.700 L49.688 241.706 L49.726 241.715 L49.764 241.727 L49.802 241.741 L49.838 241.757 L49.873 241.776 L49.907 241.797 L49.939 241.820 L49.970 241.845 L49.999 241.873 L50.026 241.902 L50.051 241.933 L50.074 241.965 L50.095 241.999 L50.114 242.034 L50.130 242.070 L50.144 242.108 L50.156 242.146 L50.165 242.184 L50.171 242.224 L50.175 242.263 L50.176 242.303 L50.175 242.343 L50.171 242.383 L50.164 242.422 L50.155 242.461 L50.143 242.499 L50.129 242.536 L50.113 242.572 L50.094 242.607 L39.230 261.272 L39.230 276.419 L39.229 276.459 L39.225 276.498 L39.219 276.537 L39.210 276.576 L39.198 276.614 L39.184 276.651 L39.168 276.688 L39.149 276.723 L39.128 276.756 L39.105 276.789 L39.080 276.819 L39.052 276.848 L39.023 276.876 L38.993 276.901 L38.960 276.924 L38.927 276.945 L38.892 276.964 L38.855 276.980 L38.818 276.994 L38.780 277.006 L38.741 277.015 L38.702 277.021 L38.663 277.025 L38.623 277.026 L33.984 277.026 L33.944 277.025 L33.905 277.021 L33.866 277.015 L33.827 277.006 L33.789 276.994 L33.752 276.980 L33.715 276.964 L33.680 276.945 L33.647 276.924 L33.614 276.901 L33.584 276.876 L33.555 276.848 L33.527 276.819 L33.502 276.789 L33.479 276.756 L33.458 276.723 L33.439 276.688 L33.423 276.651 L33.409 276.614 L33.397 276.576 L33.388 276.537 L33.382 276.498 L33.378 276.459 L33.377 276.419 L33.377 261.272 L22.558 242.606 L22.540 242.571 L22.523 242.535 L22.509 242.498 Z M121.051 242.144 L121.063 242.106 L121.077 242.069 L121.093 242.033 L121.112 241.998 L121.133 241.964 L121.156 241.932 L121.181 241.901 L121.208 241.872 L121.237 241.845 L121.268 241.820 L121.301 241.797 L121.334 241.776 L121.369 241.757 L121.405 241.741 L121.443 241.727 L121.481 241.715 L121.519 241.706 L121.559 241.700 L121.598 241.696 L121.638 241.694 L127.808 241.694 L127.848 241.696 L127.887 241.700 L127.926 241.706 L127.965 241.715 L128.003 241.727 L128.040 241.741 L128.076 241.757 L128.111 241.776 L128.145 241.797 L128.178 241.820 L128.208 241.845 L128.237 241.872 L128.264 241.901 L128.290 241.932 L128.313 241.964 L128.334 241.998 L128.352 242.033 L128.369 242.069 L128.383 242.106 L133.706 257.786 L139.070 242.105 L139.084 242.068 L139.101 242.032 L139.120 241.997 L139.141 241.963 L139.164 241.931 L139.189 241.900 L139.216 241.872 L139.245 241.844 L139.276 241.819 L139.308 241.796 L139.342 241.775 L139.377 241.757 L139.413 241.740 L139.450 241.726 L139.488 241.715 L139.527 241.706 L139.566 241.699 L139.605 241.696 L139.645 241.694 L145.838 241.694 L145.877 241.696 L145.917 241.700 L145.956 241.706 L145.995 241.715 L146.033 241.727 L146.070 241.741 L146.106 241.757 L146.141 241.776 L146.175 241.797 L146.207 241.820 L146.238 241.845 L146.267 241.872 L146.294 241.901 L146.319 241.932 L146.343 241.964 L146.364 241.998 L146.382 242.033 L146.399 242.069 L146.413 242.106 L146.424 242.144 L146.433 242.183 L146.440 242.222 L146.444 242.262 L146.445 242.302 L146.445 276.419 L146.444 276.459 L146.440 276.498 L146.433 276.537 L146.424 276.576 L146.413 276.614 L146.399 276.651 L146.382 276.688 L146.364 276.723 L146.343 276.756 L146.319 276.789 L146.294 276.819 L146.267 276.848 L146.238 276.876 L146.207 276.901 L146.175 276.924 L146.141 276.945 L146.106 276.964 L146.070 276.980 L146.033 276.994 L145.995 277.006 L145.956 277.015 L145.917 277.021 L145.877 277.025 L145.838 277.026 L141.564 277.026 L141.525 277.025 L141.485 277.021 L141.446 277.015 L141.407 277.006 L141.369 276.994 L141.332 276.980 L141.296 276.964 L141.261 276.945 L141.227 276.924 L141.195 276.901 L141.164 276.876 L141.135 276.848 L141.108 276.819 L141.083 276.789 L141.060 276.756 L141.039 276.723 L141.020 276.688 L141.003 276.651 L140.989 276.614 L140.978 276.576 L140.969 276.537 L140.962 276.498 L140.958 276.459 L140.957 276.419 L140.957 249.971 L136.061 264.456 L136.047 264.494 L136.031 264.530 L136.012 264.565 L135.991 264.599 L135.968 264.631 L135.943 264.662 L135.916 264.691 L135.887 264.718 L135.856 264.743 L135.824 264.767 L135.790 264.788 L135.755 264.806 L135.719 264.823 L135.681 264.837 L135.643 264.849 L135.605 264.858 L135.565 264.864 L135.526 264.868 L135.486 264.869 L131.990 264.869 L131.950 264.868 L131.910 264.864 L131.871 264.858 L131.832 264.849 L131.794 264.837 L131.757 264.823 L131.721 264.807 L131.686 264.788 L131.652 264.767 L131.620 264.744 L131.589 264.718 L131.560 264.691 L131.533 264.662 L131.508 264.632 L131.485 264.599 L131.464 264.566 L131.445 264.530 L131.429 264.494 L131.415 264.457 L126.496 249.958 L126.496 276.419 L126.494 276.459 L126.490 276.498 L126.484 276.537 L126.475 276.576 L126.463 276.614 L126.449 276.651 L126.433 276.688 L126.414 276.723 L126.393 276.756 L126.370 276.789 L126.345 276.819 L126.318 276.848 L126.289 276.876 L126.258 276.901 L126.226 276.924 L126.192 276.945 L126.157 276.964 L126.121 276.980 L126.083 276.994 L126.045 277.006 L126.007 277.015 L125.968 277.021 L125.928 277.025 L125.888 277.026 L121.638 277.026 L121.598 277.025 L121.559 277.021 L121.519 277.015 L121.481 277.006 L121.443 276.994 L121.405 276.980 L121.369 276.964 L121.334 276.945 L121.301 276.924 L121.268 276.901 L121.237 276.876 L121.208 276.848 L121.181 276.819 L121.156 276.789 L121.133 276.756 L121.112 276.723 L121.093 276.688 L121.077 276.651 L121.063 276.614 L121.051 276.576 L121.042 276.537 L121.036 276.498 L121.032 276.459 L121.031 276.419 L121.031 242.302 L121.032 242.262 L121.036 242.222 L121.042 242.183 Z M217.594 242.144 L217.606 242.106 L217.620 242.069 L217.636 242.033 L217.655 241.998 L217.676 241.964 L217.699 241.932 L217.724 241.901 L217.752 241.872 L217.781 241.845 L217.811 241.820 L217.844 241.797 L217.877 241.776 L217.912 241.757 L217.949 241.741 L217.986 241.727 L218.024 241.715 L218.062 241.706 L218.102 241.700 L218.141 241.696 L218.181 241.694 L244.209 241.694 L244.249 241.696 L244.288 241.700 L244.327 241.706 L244.366 241.715 L244.404 241.727 L244.441 241.741 L244.477 241.757 L244.513 241.776 L244.546 241.797 L244.579 241.820 L244.609 241.845 L244.638 241.872 L244.665 241.901 L244.691 241.932 L244.714 241.964 L244.735 241.998 L244.754 242.033 L244.770 242.069 L244.784 242.106 L244.795 242.144 L244.805 242.183 L244.811 242.222 L244.815 242.262 L244.816 242.302 L244.816 246.186 L244.815 246.226 L244.811 246.266 L244.805 246.305 L244.795 246.344 L244.784 246.382 L244.770 246.419 L244.754 246.455 L244.735 246.490 L244.714 246.524 L244.691 246.556 L244.665 246.587 L244.638 246.616 L244.609 246.643 L244.579 246.668 L244.546 246.691 L244.513 246.712 L244.477 246.731 L244.441 246.747 L244.404 246.761 L244.366 246.773 L244.327 246.782 L244.288 246.788 L244.249 246.792 L244.209 246.794 L234.145 246.794 L234.145 276.419 L234.143 276.459 L234.139 276.498 L234.133 276.537 L234.124 276.576 L234.112 276.614 L234.098 276.651 L234.082 276.688 L234.063 276.723 L234.042 276.756 L234.019 276.789 L233.994 276.819 L233.967 276.848 L233.938 276.876 L233.907 276.901 L233.875 276.924 L233.841 276.945 L233.806 276.964 L233.770 276.980 L233.732 276.994 L233.694 277.006 L233.656 277.015 L233.616 277.021 L233.577 277.025 L233.537 277.026 L228.898 277.026 L228.859 277.025 L228.819 277.021 L228.780 277.015 L228.741 277.006 L228.703 276.994 L228.666 276.980 L228.630 276.964 L228.595 276.945 L228.561 276.924 L228.529 276.901 L228.498 276.876 L228.469 276.848 L228.442 276.819 L228.417 276.789 L228.393 276.756 L228.372 276.723 L228.354 276.688 L228.337 276.651 L228.323 276.614 L228.312 276.576 L228.303 276.537 L228.296 276.498 L228.292 276.459 L228.291 276.419 L228.291 246.794 L218.181 246.794 L218.141 246.792 L218.102 246.788 L218.062 246.782 L218.024 246.773 L217.986 246.761 L217.949 246.747 L217.912 246.731 L217.877 246.712 L217.844 246.691 L217.811 246.668 L217.781 246.643 L217.752 246.616 L217.724 246.587 L217.699 246.556 L217.676 246.524 L217.655 246.490 L217.636 246.455 L217.620 246.419 L217.606 246.382 L217.594 246.344 L217.585 246.305 L217.579 246.266 L217.575 246.226 L217.574 246.186 L217.574 242.302 L217.575 242.262 L217.579 242.222 L217.585 242.183 Z M336.093 242.034 L336.112 241.999 L336.133 241.965 L336.156 241.933 L336.181 241.902 L336.209 241.873 L336.238 241.846 L336.268 241.820 L336.301 241.797 L336.335 241.776 L336.370 241.757 L336.406 241.741 L336.443 241.727 L336.481 241.715 L336.520 241.706 L336.559 241.700 L336.599 241.696 L336.639 241.694 L341.415 241.694 L341.455 241.696 L341.495 241.700 L341.535 241.706 L341.574 241.716 L341.612 241.727 L341.650 241.742 L341.686 241.758 L341.722 241.778 L341.756 241.799 L341.788 241.823 L341.819 241.849 L341.848 241.876 L341.875 241.906 L341.901 241.937 L341.924 241.970 L341.945 242.005 L341.963 242.041 L341.979 242.078 L341.993 242.115 L342.004 242.154 L342.012 242.193 L342.018 242.233 L342.021 242.273 L342.022 242.314 L342.020 242.354 L342.015 242.394 L342.008 242.433 L341.998 242.472 L332.011 276.590 L331.999 276.627 L331.985 276.663 L331.968 276.698 L331.949 276.732 L331.928 276.765 L331.904 276.796 L331.879 276.826 L331.852 276.854 L331.823 276.881 L331.793 276.905 L331.761 276.927 L331.727 276.948 L331.693 276.966 L331.657 276.982 L331.620 276.995 L331.583 277.006 L331.545 277.015 L331.506 277.021 L331.468 277.025 L331.429 277.026 L325.830 277.026 L325.791 277.025 L325.752 277.021 L325.713 277.015 L325.675 277.006 L325.638 276.995 L325.601 276.982 L325.566 276.966 L325.531 276.948 L325.498 276.927 L325.466 276.905 L325.435 276.881 L325.406 276.854 L325.379 276.826 L325.354 276.796 L325.331 276.765 L325.310 276.732 L325.291 276.698 L325.274 276.663 L325.259 276.627 L325.247 276.590 L315.261 242.472 L315.251 242.433 L315.244 242.394 L315.239 242.354 L315.237 242.314 L315.237 242.273 L315.240 242.233 L315.246 242.193 L315.255 242.154 L315.266 242.115 L315.279 242.078 L315.295 242.041 L315.314 242.005 L315.335 241.970 L315.358 241.937 L315.383 241.906 L315.410 241.876 L315.439 241.849 L315.470 241.823 L315.503 241.799 L315.537 241.778 L315.572 241.758 L315.609 241.742 L315.646 241.727 L315.685 241.716 L315.724 241.706 L315.764 241.700 L315.804 241.696 L315.844 241.694 L320.620 241.694 L320.660 241.696 L320.699 241.700 L320.739 241.706 L320.777 241.715 L320.815 241.727 L320.853 241.741 L320.889 241.757 L320.924 241.776 L320.958 241.797 L320.990 241.820 L321.021 241.846 L321.050 241.873 L321.077 241.902 L321.102 241.933 L321.125 241.965 L321.146 241.999 L321.165 242.034 L321.181 242.071 L321.195 242.108 L321.207 242.146 L328.619 270.163 L336.052 242.146 L336.063 242.108 L336.077 242.070 Z M411.372 242.231 L411.378 242.191 L411.387 242.152 L411.398 242.114 L411.412 242.076 L411.428 242.039 L411.446 242.004 L411.467 241.969 L411.490 241.936 L411.515 241.905 L411.543 241.876 L411.572 241.848 L411.603 241.822 L411.635 241.799 L411.669 241.777 L411.704 241.758 L411.741 241.741 L411.778 241.727 L411.817 241.715 L411.856 241.706 L411.895 241.700 L411.935 241.696 L411.976 241.694 L416.477 241.694 L416.517 241.696 L416.557 241.700 L416.597 241.706 L416.636 241.715 L416.674 241.727 L416.712 241.741 L416.748 241.758 L416.783 241.777 L416.817 241.799 L416.850 241.822 L416.881 241.848 L416.910 241.875 L416.937 241.905 L416.962 241.936 L416.985 241.969 L417.006 242.003 L417.025 242.039 L417.041 242.075 L417.055 242.113 L417.066 242.152 L417.074 242.191 L417.080 242.230 L419.916 266.263 L423.036 251.545 L423.045 251.507 L423.057 251.469 L423.071 251.432 L423.088 251.397 L423.107 251.362 L423.128 251.329 L423.151 251.297 L423.176 251.267 L423.203 251.238 L423.232 251.212 L423.263 251.187 L423.295 251.164 L423.329 251.143 L423.363 251.125 L423.399 251.109 L423.436 251.095 L423.474 251.084 L423.512 251.075 L423.551 251.069 L423.590 251.065 L423.630 251.063 L428.451 251.063 L428.491 251.065 L428.530 251.069 L428.569 251.075 L428.607 251.084 L428.645 251.095 L428.682 251.109 L428.717 251.125 L428.752 251.143 L428.786 251.164 L428.818 251.186 L428.848 251.211 L428.877 251.238 L428.904 251.266 L428.930 251.296 L428.953 251.328 L428.974 251.361 L428.993 251.396 L429.010 251.431 L429.024 251.468 L429.036 251.506 L429.045 251.544 L432.208 266.328 L435.047 242.231 L435.053 242.191 L435.061 242.152 L435.072 242.113 L435.086 242.075 L435.102 242.039 L435.121 242.003 L435.142 241.969 L435.165 241.936 L435.190 241.905 L435.217 241.875 L435.246 241.848 L435.277 241.822 L435.310 241.799 L435.343 241.777 L435.379 241.758 L435.415 241.741 L435.453 241.727 L435.491 241.715 L435.530 241.706 L435.570 241.700 L435.610 241.696 L435.650 241.694 L440.151 241.694 L440.192 241.696 L440.232 241.700 L440.271 241.706 L440.310 241.715 L440.349 241.727 L440.386 241.741 L440.423 241.758 L440.458 241.777 L440.492 241.799 L440.524 241.822 L440.555 241.848 L440.584 241.876 L440.612 241.905 L440.637 241.936 L440.660 241.969 L440.681 242.004 L440.699 242.039 L440.715 242.076 L440.729 242.114 L440.740 242.152 L440.749 242.191 L440.755 242.231 L440.758 242.271 L440.759 242.311 L440.757 242.351 L440.752 242.391 L435.656 276.509 L435.649 276.547 L435.640 276.585 L435.628 276.623 L435.613 276.659 L435.597 276.695 L435.578 276.729 L435.557 276.762 L435.533 276.794 L435.508 276.824 L435.481 276.852 L435.452 276.879 L435.421 276.904 L435.389 276.926 L435.356 276.947 L435.321 276.965 L435.285 276.981 L435.249 276.995 L435.211 277.006 L435.173 277.015 L435.134 277.021 L435.095 277.025 L435.056 277.026 L430.691 277.026 L430.652 277.025 L430.613 277.021 L430.575 277.015 L430.537 277.006 L430.500 276.995 L430.463 276.982 L430.428 276.966 L430.393 276.948 L430.360 276.928 L430.328 276.906 L430.297 276.882 L430.269 276.855 L430.242 276.827 L430.216 276.798 L430.193 276.767 L430.172 276.734 L430.153 276.700 L430.136 276.665 L430.121 276.629 L430.109 276.592 L430.099 276.554 L426.054 258.878 L422.028 276.554 L422.018 276.592 L422.006 276.628 L421.991 276.665 L421.975 276.700 L421.955 276.734 L421.934 276.766 L421.911 276.797 L421.886 276.827 L421.859 276.855 L421.830 276.881 L421.799 276.906 L421.767 276.928 L421.734 276.948 L421.700 276.966 L421.664 276.982 L421.627 276.995 L421.590 277.006 L421.552 277.015 L421.514 277.021 L421.475 277.025 L421.436 277.026 L417.071 277.026 L417.032 277.025 L416.993 277.021 L416.954 277.015 L416.916 277.006 L416.878 276.995 L416.842 276.981 L416.806 276.965 L416.771 276.947 L416.738 276.926 L416.706 276.904 L416.675 276.879 L416.646 276.852 L416.619 276.824 L416.594 276.794 L416.571 276.762 L416.549 276.729 L416.530 276.695 L416.514 276.659 L416.499 276.623 L416.487 276.585 L416.478 276.547 L416.471 276.509 L411.375 242.391 L411.370 242.351 L411.368 242.311 L411.369 242.271 Z M477.741 241.716 L477.780 241.728 L477.818 241.743 L477.855 241.760 L477.890 241.780 L477.925 241.802 L477.957 241.826 L477.988 241.852 L478.017 241.880 L478.045 241.911 L478.070 241.943 L478.093 241.976 L478.113 242.011 L478.132 242.048 L478.147 242.085 L478.161 242.124 L488.604 276.241 L488.614 276.279 L488.622 276.317 L488.627 276.356 L488.630 276.395 L488.630 276.434 L488.628 276.473 L488.623 276.512 L488.616 276.550 L488.606 276.588 L488.594 276.626 L488.580 276.662 L488.563 276.697 L488.544 276.731 L488.523 276.764 L488.499 276.796 L488.474 276.826 L488.447 276.854 L488.418 276.880 L488.388 276.905 L488.356 276.927 L488.322 276.947 L488.288 276.966 L488.252 276.981 L488.215 276.995 L488.178 277.006 L488.140 277.015 L488.101 277.021 L488.062 277.025 L488.023 277.026 L483.247 277.026 L483.208 277.025 L483.169 277.021 L483.130 277.015 L483.092 277.006 L483.054 276.995 L483.017 276.981 L482.981 276.965 L482.946 276.947 L482.913 276.926 L482.881 276.903 L482.850 276.879 L482.821 276.852 L482.794 276.823 L482.769 276.793 L482.746 276.762 L482.725 276.728 L482.706 276.694 L482.689 276.658 L482.675 276.622 L482.663 276.584 L480.274 268.137 L469.244 268.137 L466.899 276.581 L466.888 276.619 L466.873 276.656 L466.857 276.692 L466.838 276.726 L466.817 276.760 L466.794 276.792 L466.768 276.822 L466.741 276.851 L466.712 276.878 L466.682 276.902 L466.649 276.925 L466.616 276.946 L466.581 276.964 L466.545 276.981 L466.508 276.994 L466.470 277.006 L466.432 277.015 L466.393 277.021 L466.354 277.025 L466.314 277.026 L461.538 277.026 L461.499 277.025 L461.460 277.021 L461.422 277.015 L461.383 277.006 L461.346 276.995 L461.309 276.981 L461.274 276.966 L461.239 276.947 L461.206 276.927 L461.174 276.905 L461.143 276.880 L461.114 276.854 L461.087 276.826 L461.062 276.796 L461.039 276.764 L461.017 276.731 L460.998 276.697 L460.982 276.662 L460.967 276.626 L460.955 276.588 L460.945 276.550 L460.938 276.512 L460.933 276.473 L460.931 276.434 L460.931 276.395 L460.934 276.356 L460.939 276.317 L460.947 276.279 L460.957 276.241 L471.401 242.124 L471.414 242.085 L471.430 242.048 L471.448 242.011 L471.468 241.976 L471.491 241.943 L471.517 241.911 L471.544 241.880 L471.573 241.852 L471.604 241.826 L471.637 241.802 L471.671 241.780 L471.707 241.760 L471.744 241.743 L471.782 241.728 L471.820 241.716 L471.860 241.707 L471.900 241.700 L471.941 241.696 L471.981 241.694 L477.580 241.694 L477.621 241.696 L477.661 241.700 L477.701 241.707 Z M478.837 263.220 L474.769 248.631 L470.702 263.220 Z M509.897 242.144 L509.909 242.106 L509.923 242.069 L509.939 242.033 L509.958 241.998 L509.979 241.964 L510.002 241.932 L510.027 241.901 L510.054 241.872 L510.083 241.845 L510.114 241.820 L510.146 241.797 L510.180 241.776 L510.215 241.757 L510.251 241.741 L510.289 241.727 L510.327 241.715 L510.365 241.706 L510.405 241.700 L510.444 241.696 L510.484 241.694 L536.512 241.694 L536.551 241.696 L536.591 241.700 L536.630 241.706 L536.669 241.715 L536.707 241.727 L536.744 241.741 L536.780 241.757 L536.815 241.776 L536.849 241.797 L536.881 241.820 L536.912 241.845 L536.941 241.872 L536.968 241.901 L536.994 241.932 L537.017 241.964 L537.038 241.998 L537.056 242.033 L537.073 242.069 L537.087 242.106 L537.098 242.144 L537.107 242.183 L537.114 242.222 L537.118 242.262 L537.119 242.302 L537.119 246.186 L537.118 246.226 L537.114 246.266 L537.107 246.305 L537.098 246.344 L537.087 246.382 L537.073 246.419 L537.056 246.455 L537.038 246.490 L537.017 246.524 L536.994 246.556 L536.968 246.587 L536.941 246.616 L536.912 246.643 L536.881 246.668 L536.849 246.691 L536.815 246.712 L536.780 246.731 L536.744 246.747 L536.707 246.761 L536.669 246.773 L536.630 246.782 L536.591 246.788 L536.551 246.792 L536.512 246.794 L526.447 246.794 L526.447 276.419 L526.446 276.459 L526.442 276.498 L526.436 276.537 L526.427 276.576 L526.415 276.614 L526.401 276.651 L526.385 276.688 L526.366 276.723 L526.345 276.756 L526.322 276.789 L526.297 276.819 L526.269 276.848 L526.240 276.876 L526.210 276.901 L526.177 276.924 L526.144 276.945 L526.109 276.964 L526.072 276.980 L526.035 276.994 L525.997 277.006 L525.959 277.015 L525.919 277.021 L525.880 277.025 L525.840 277.026 L521.201 277.026 L521.161 277.025 L521.122 277.021 L521.083 277.015 L521.044 277.006 L521.006 276.994 L520.969 276.980 L520.933 276.964 L520.898 276.945 L520.864 276.924 L520.832 276.901 L520.801 276.876 L520.772 276.848 L520.745 276.819 L520.719 276.789 L520.696 276.756 L520.675 276.723 L520.657 276.688 L520.640 276.651 L520.626 276.614 L520.615 276.576 L520.606 276.537 L520.599 276.498 L520.595 276.459 L520.594 276.419 L520.594 246.794 L510.484 246.794 L510.444 246.792 L510.405 246.788 L510.365 246.782 L510.327 246.773 L510.289 246.761 L510.251 246.747 L510.215 246.731 L510.180 246.712 L510.146 246.691 L510.114 246.668 L510.083 246.643 L510.054 246.616 L510.027 246.587 L510.002 246.556 L509.979 246.524 L509.958 246.490 L509.939 246.455 L509.923 246.419 L509.909 246.382 L509.897 246.344 L509.888 246.305 L509.882 246.266 L509.878 246.226 L509.877 246.186 L509.877 242.302 L509.878 242.262 L509.882 242.222 L509.888 242.183 Z M727.751 242.968 L727.782 242.992 L727.812 243.017 L727.840 243.044 L727.866 243.073 L727.890 243.103 L727.913 243.135 L727.933 243.168 L727.951 243.203 L727.967 243.239 L727.980 243.275 L727.991 243.313 L728.000 243.351 L728.006 243.389 L728.010 243.428 L728.011 243.467 L728.011 248.152 L728.010 248.191 L728.006 248.230 L728.000 248.269 L727.991 248.307 L727.980 248.344 L727.966 248.381 L727.950 248.417 L727.932 248.452 L727.912 248.485 L727.889 248.517 L727.864 248.548 L727.838 248.577 L727.810 248.604 L727.780 248.629 L727.748 248.652 L727.715 248.673 L727.681 248.692 L727.645 248.709 L727.609 248.723 L727.571 248.735 L727.533 248.745 L727.495 248.752 L727.456 248.757 L727.417 248.759 L727.377 248.758 L727.338 248.755 L727.299 248.750 L727.261 248.742 L727.223 248.731 L727.186 248.718 L727.150 248.703 L727.115 248.686 L727.081 248.666 L726.736 248.449 L726.395 248.244 L726.055 248.048 L725.715 247.862 L725.375 247.684 L725.035 247.516 L724.696 247.357 L724.356 247.207 L724.017 247.065 L723.678 246.933 L723.339 246.810 L723.001 246.696 L722.663 246.591 L722.324 246.495 L721.986 246.408 L721.647 246.331 L721.308 246.262 L720.969 246.203 L720.630 246.153 L720.290 246.112 L719.950 246.081 L719.609 246.058 L719.268 246.044 L718.928 246.040 L718.416 246.050 L717.926 246.080 L717.456 246.130 L717.008 246.199 L716.580 246.287 L716.173 246.395 L715.786 246.521 L715.419 246.666 L715.072 246.828 L714.743 247.009 L714.433 247.209 L714.142 247.426 L713.872 247.658 L713.627 247.902 L713.407 248.157 L713.212 248.423 L713.040 248.701 L712.891 248.992 L712.764 249.297 L712.660 249.616 L712.579 249.951 L712.520 250.302 L712.485 250.670 L712.473 251.056 L712.481 251.394 L712.504 251.717 L712.543 252.024 L712.597 252.313 L712.665 252.585 L712.748 252.841 L712.844 253.081 L712.954 253.305 L713.077 253.515 L713.214 253.711 L713.365 253.894 L713.530 254.064 L713.716 254.228 L713.935 254.392 L714.185 254.556 L714.469 254.719 L714.786 254.879 L715.135 255.037 L715.516 255.192 L715.930 255.342 L716.375 255.489 L716.852 255.631 L717.360 255.768 L717.900 255.901 L720.317 256.449 L720.330 256.452 L721.112 256.647 L721.132 256.652 L721.877 256.866 L721.898 256.872 L722.608 257.103 L722.630 257.111 L723.303 257.360 L723.327 257.369 L723.964 257.636 L723.990 257.647 L724.590 257.932 L724.617 257.945 L725.182 258.247 L725.210 258.263 L725.738 258.583 L725.767 258.602 L726.259 258.939 L726.289 258.961 L726.745 259.317 L726.775 259.342 L727.195 259.715 L727.225 259.744 L727.609 260.135 L727.638 260.167 L727.989 260.579 L728.016 260.613 L728.336 261.049 L728.360 261.085 L728.649 261.545 L728.671 261.582 L728.930 262.066 L728.948 262.104 L729.177 262.612 L729.192 262.649 L729.390 263.182 L729.402 263.219 L729.570 263.775 L729.580 263.811 L729.717 264.392 L729.724 264.426 L729.830 265.031 L729.835 265.063 L729.911 265.692 L729.914 265.723 L729.960 266.376 L729.961 266.405 L729.977 267.082 L729.976 267.112 L729.956 267.907 L729.954 267.941 L729.891 268.704 L729.887 268.740 L729.782 269.471 L729.775 269.510 L729.629 270.209 L729.619 270.249 L729.430 270.916 L729.417 270.958 L729.186 271.593 L729.169 271.636 L728.896 272.239 L728.875 272.282 L728.561 272.852 L728.535 272.894 L728.179 273.433 L728.150 273.473 L727.752 273.980 L727.720 274.018 L727.280 274.493 L727.246 274.527 L726.764 274.970 L726.728 275.000 L726.206 275.409 L726.168 275.436 L725.608 275.810 L725.570 275.833 L724.972 276.171 L724.934 276.191 L724.298 276.493 L724.261 276.509 L723.587 276.776 L723.551 276.788 L722.838 277.019 L722.804 277.030 L722.054 277.225 L722.021 277.233 L721.233 277.392 L721.203 277.398 L720.376 277.522 L720.348 277.526 L719.483 277.615 L719.457 277.617 L718.555 277.670 L718.530 277.671 L717.589 277.689 L717.573 277.689 L717.172 277.685 L717.162 277.685 L716.761 277.674 L716.751 277.674 L716.350 277.656 L716.339 277.656 L715.938 277.631 L715.927 277.630 L715.526 277.598 L715.515 277.597 L715.114 277.558 L715.103 277.556 L714.701 277.510 L714.691 277.509 L714.288 277.455 L714.278 277.454 L713.875 277.393 L713.865 277.391 L713.462 277.323 L713.452 277.322 L713.049 277.247 L713.039 277.245 L712.635 277.163 L712.625 277.160 L712.221 277.071 L712.212 277.069 L711.807 276.973 L711.798 276.970 L711.393 276.867 L711.384 276.864 L710.979 276.753 L710.969 276.751 L710.564 276.633 L710.555 276.630 L710.149 276.505 L710.140 276.502 L709.735 276.370 L709.726 276.367 L709.319 276.228 L709.311 276.225 L708.904 276.078 L708.896 276.075 L708.489 275.922 L708.480 275.918 L708.073 275.758 L708.065 275.754 L707.658 275.587 L707.621 275.570 L707.586 275.551 L707.552 275.531 L707.520 275.507 L707.489 275.482 L707.460 275.455 L707.433 275.426 L707.408 275.395 L707.384 275.363 L707.363 275.329 L707.344 275.294 L707.328 275.258 L707.314 275.221 L707.302 275.182 L707.293 275.144 L707.287 275.104 L707.283 275.065 L707.282 275.025 L707.282 270.112 L707.283 270.073 L707.287 270.034 L707.293 269.995 L707.302 269.957 L707.313 269.919 L707.327 269.883 L707.342 269.847 L707.361 269.812 L707.381 269.779 L707.404 269.747 L707.428 269.716 L707.455 269.687 L707.483 269.660 L707.513 269.635 L707.544 269.612 L707.577 269.591 L707.611 269.572 L707.647 269.555 L707.683 269.541 L707.721 269.528 L707.759 269.519 L707.797 269.512 L707.836 269.507 L707.875 269.505 L707.914 269.505 L707.953 269.508 L707.992 269.513 L708.030 269.521 L708.068 269.532 L708.105 269.544 L708.141 269.560 L708.176 269.577 L708.210 269.597 L708.642 269.866 L709.065 270.120 L709.484 270.362 L709.898 270.591 L710.308 270.808 L710.713 271.012 L711.114 271.204 L711.511 271.384 L711.902 271.552 L712.290 271.707 L712.672 271.850 L713.050 271.981 L713.426 272.100 L713.802 272.209 L714.179 272.307 L714.555 272.396 L714.932 272.473 L715.309 272.541 L715.686 272.597 L716.064 272.644 L716.441 272.680 L716.820 272.706 L717.199 272.722 L717.576 272.727 L718.126 272.716 L718.651 272.685 L719.153 272.634 L719.631 272.562 L720.086 272.470 L720.517 272.359 L720.926 272.228 L721.312 272.079 L721.675 271.911 L722.016 271.724 L722.336 271.519 L722.635 271.296 L722.911 271.056 L723.161 270.803 L723.386 270.536 L723.587 270.254 L723.764 269.958 L723.918 269.645 L724.049 269.316 L724.157 268.969 L724.241 268.604 L724.302 268.220 L724.339 267.816 L724.352 267.390 L724.343 267.002 L724.317 266.631 L724.275 266.278 L724.216 265.944 L724.141 265.629 L724.050 265.333 L723.944 265.055 L723.823 264.794 L723.688 264.550 L723.537 264.323 L723.372 264.111 L723.191 263.913 L722.988 263.724 L722.758 263.539 L722.498 263.358 L722.209 263.182 L721.891 263.011 L721.543 262.845 L721.166 262.686 L720.759 262.534 L720.323 262.389 L719.858 262.251 L719.364 262.121 L718.834 261.997 L716.367 261.426 L716.362 261.425 L715.588 261.238 L715.570 261.233 L714.832 261.032 L714.812 261.026 L714.111 260.809 L714.090 260.802 L713.425 260.570 L713.402 260.561 L712.773 260.314 L712.749 260.304 L712.156 260.041 L712.131 260.029 L711.574 259.751 L711.547 259.737 L711.026 259.444 L710.998 259.427 L710.514 259.118 L710.484 259.099 L710.036 258.775 L710.005 258.752 L709.593 258.413 L709.563 258.386 L709.186 258.031 L709.156 258.001 L708.813 257.629 L708.785 257.596 L708.472 257.203 L708.446 257.168 L708.162 256.754 L708.139 256.717 L707.885 256.283 L707.865 256.245 L707.641 255.790 L707.623 255.752 L707.429 255.276 L707.415 255.238 L707.251 254.742 L707.240 254.704 L707.106 254.187 L707.097 254.150 L706.993 253.613 L706.987 253.578 L706.912 253.020 L706.909 252.986 L706.864 252.408 L706.863 252.376 L706.848 251.777 L706.848 251.745 L706.869 250.996 L706.871 250.960 L706.935 250.236 L706.940 250.197 L707.047 249.499 L707.054 249.459 L707.203 248.786 L707.214 248.745 L707.406 248.096 L707.420 248.055 L707.655 247.432 L707.672 247.390 L707.950 246.793 L707.971 246.752 L708.291 246.179 L708.315 246.140 L708.677 245.593 L708.704 245.556 L709.110 245.034 L709.138 245.000 L709.586 244.503 L709.617 244.472 L710.108 244.000 L710.139 243.972 L710.665 243.532 L710.698 243.507 L711.253 243.105 L711.288 243.082 L711.870 242.718 L711.906 242.697 L712.517 242.372 L712.553 242.354 L713.192 242.068 L713.228 242.053 L713.895 241.804 L713.931 241.792 L714.626 241.581 L714.662 241.572 L715.384 241.400 L715.419 241.393 L716.170 241.259 L716.202 241.254 L716.981 241.158 L717.012 241.155 L717.819 241.098 L717.849 241.097 L718.684 241.077 L718.703 241.077 L719.032 241.080 L719.044 241.081 L719.375 241.090 L719.387 241.090 L719.721 241.106 L719.732 241.106 L720.070 241.128 L720.080 241.129 L720.421 241.157 L720.431 241.158 L720.774 241.192 L720.784 241.193 L721.131 241.233 L721.141 241.234 L721.489 241.281 L721.499 241.282 L721.851 241.335 L721.861 241.336 L722.215 241.395 L722.225 241.397 L722.582 241.462 L722.591 241.463 L722.951 241.534 L722.960 241.536 L723.324 241.614 L723.332 241.615 L723.699 241.699 L723.707 241.701 L724.077 241.791 L724.085 241.793 L724.458 241.889 L724.466 241.891 L724.842 241.993 L724.849 241.995 L725.229 242.103 L725.236 242.105 L725.618 242.220 L725.626 242.222 L726.011 242.343 L726.018 242.345 L726.407 242.472 L726.414 242.474 L726.806 242.607 L726.813 242.610 L727.208 242.749 L727.214 242.751 L727.612 242.897 L727.649 242.911 L727.684 242.928 L727.718 242.947 Z M825.185 242.968 L825.216 242.992 L825.246 243.017 L825.274 243.044 L825.300 243.073 L825.325 243.103 L825.347 243.135 L825.367 243.168 L825.385 243.203 L825.401 243.239 L825.415 243.275 L825.426 243.313 L825.434 243.351 L825.441 243.389 L825.444 243.428 L825.446 243.467 L825.446 248.152 L825.444 248.191 L825.441 248.230 L825.434 248.269 L825.426 248.307 L825.414 248.344 L825.401 248.381 L825.385 248.417 L825.366 248.452 L825.346 248.485 L825.323 248.517 L825.299 248.548 L825.272 248.577 L825.244 248.604 L825.214 248.629 L825.182 248.652 L825.149 248.673 L825.115 248.692 L825.079 248.709 L825.043 248.723 L825.006 248.735 L824.968 248.745 L824.929 248.752 L824.890 248.757 L824.851 248.759 L824.812 248.758 L824.773 248.755 L824.734 248.750 L824.695 248.742 L824.658 248.731 L824.621 248.718 L824.584 248.703 L824.549 248.686 L824.515 248.666 L824.170 248.449 L823.829 248.244 L823.489 248.048 L823.149 247.862 L822.809 247.684 L822.469 247.516 L822.130 247.357 L821.791 247.207 L821.451 247.065 L821.112 246.933 L820.774 246.810 L820.435 246.696 L820.097 246.591 L819.759 246.495 L819.420 246.408 L819.082 246.331 L818.743 246.262 L818.404 246.203 L818.064 246.153 L817.724 246.112 L817.384 246.081 L817.043 246.058 L816.702 246.044 L816.362 246.040 L815.850 246.050 L815.360 246.080 L814.891 246.130 L814.442 246.199 L814.015 246.287 L813.607 246.395 L813.220 246.521 L812.853 246.666 L812.506 246.828 L812.178 247.009 L811.868 247.209 L811.576 247.426 L811.306 247.658 L811.061 247.902 L810.842 248.157 L810.646 248.423 L810.474 248.701 L810.325 248.992 L810.199 249.297 L810.095 249.616 L810.013 249.951 L809.954 250.302 L809.919 250.670 L809.907 251.056 L809.915 251.394 L809.938 251.717 L809.977 252.024 L810.031 252.313 L810.100 252.585 L810.182 252.841 L810.278 253.081 L810.388 253.305 L810.511 253.515 L810.648 253.711 L810.799 253.894 L810.964 254.064 L811.151 254.228 L811.369 254.392 L811.620 254.556 L811.904 254.719 L812.220 254.879 L812.569 255.037 L812.951 255.192 L813.364 255.342 L813.809 255.489 L814.286 255.631 L814.795 255.768 L815.335 255.901 L817.751 256.449 L817.765 256.452 L818.546 256.647 L818.566 256.652 L819.312 256.866 L819.333 256.872 L820.042 257.103 L820.064 257.111 L820.738 257.360 L820.762 257.369 L821.399 257.636 L821.424 257.647 L822.025 257.932 L822.051 257.945 L822.616 258.247 L822.644 258.263 L823.172 258.583 L823.201 258.602 L823.694 258.939 L823.724 258.961 L824.180 259.317 L824.210 259.342 L824.630 259.715 L824.660 259.744 L825.043 260.135 L825.073 260.167 L825.423 260.579 L825.450 260.613 L825.770 261.049 L825.794 261.085 L826.084 261.545 L826.105 261.582 L826.364 262.066 L826.383 262.104 L826.611 262.612 L826.626 262.649 L826.824 263.182 L826.837 263.219 L827.004 263.775 L827.014 263.811 L827.151 264.392 L827.158 264.426 L827.265 265.031 L827.269 265.063 L827.346 265.692 L827.349 265.723 L827.394 266.376 L827.396 266.405 L827.411 267.082 L827.411 267.112 L827.390 267.907 L827.388 267.941 L827.325 268.704 L827.321 268.740 L827.216 269.471 L827.209 269.510 L827.063 270.209 L827.053 270.249 L826.864 270.916 L826.851 270.958 L826.620 271.593 L826.603 271.636 L826.331 272.239 L826.309 272.282 L825.995 272.852 L825.970 272.894 L825.614 273.433 L825.585 273.473 L825.187 273.980 L825.154 274.018 L824.714 274.493 L824.680 274.527 L824.198 274.970 L824.162 275.000 L823.640 275.409 L823.602 275.436 L823.042 275.810 L823.004 275.833 L822.406 276.171 L822.368 276.191 L821.732 276.493 L821.695 276.509 L821.021 276.776 L820.985 276.788 L820.273 277.019 L820.238 277.030 L819.488 277.225 L819.456 277.233 L818.667 277.392 L818.637 277.398 L817.811 277.522 L817.782 277.526 L816.918 277.615 L816.891 277.617 L815.989 277.670 L815.964 277.671 L815.024 277.689 L815.007 277.689 L814.607 277.685 L814.596 277.685 L814.196 277.674 L814.185 277.674 L813.784 277.656 L813.773 277.656 L813.372 277.631 L813.362 277.630 L812.960 277.598 L812.950 277.597 L812.548 277.558 L812.537 277.556 L812.135 277.510 L812.125 277.509 L811.723 277.455 L811.712 277.454 L811.310 277.393 L811.299 277.391 L810.897 277.323 L810.886 277.322 L810.483 277.247 L810.473 277.245 L810.069 277.163 L810.060 277.160 L809.656 277.071 L809.646 277.069 L809.242 276.973 L809.232 276.970 L808.827 276.867 L808.818 276.864 L808.413 276.753 L808.404 276.751 L807.998 276.633 L807.989 276.630 L807.584 276.505 L807.575 276.502 L807.169 276.370 L807.160 276.367 L806.754 276.228 L806.745 276.225 L806.339 276.078 L806.330 276.075 L805.923 275.922 L805.915 275.918 L805.508 275.758 L805.499 275.754 L805.092 275.587 L805.056 275.570 L805.020 275.551 L804.987 275.531 L804.954 275.507 L804.923 275.482 L804.894 275.455 L804.867 275.426 L804.842 275.395 L804.819 275.363 L804.798 275.329 L804.779 275.294 L804.762 275.258 L804.748 275.221 L804.737 275.182 L804.728 275.144 L804.721 275.104 L804.717 275.065 L804.716 275.025 L804.716 270.112 L804.717 270.073 L804.721 270.034 L804.727 269.995 L804.736 269.957 L804.747 269.919 L804.761 269.883 L804.777 269.847 L804.795 269.812 L804.815 269.779 L804.838 269.747 L804.862 269.716 L804.889 269.687 L804.917 269.660 L804.947 269.635 L804.979 269.612 L805.012 269.591 L805.046 269.572 L805.081 269.555 L805.118 269.541 L805.155 269.528 L805.193 269.519 L805.231 269.512 L805.270 269.507 L805.309 269.505 L805.348 269.505 L805.387 269.508 L805.426 269.513 L805.465 269.521 L805.502 269.532 L805.539 269.544 L805.576 269.560 L805.611 269.577 L805.644 269.597 L806.076 269.866 L806.499 270.120 L806.918 270.362 L807.332 270.591 L807.742 270.808 L808.148 271.012 L808.549 271.204 L808.945 271.384 L809.337 271.552 L809.724 271.707 L810.107 271.850 L810.485 271.981 L810.860 272.100 L811.237 272.209 L811.613 272.307 L811.989 272.396 L812.366 272.473 L812.743 272.541 L813.120 272.597 L813.498 272.644 L813.876 272.680 L814.254 272.706 L814.633 272.722 L815.011 272.727 L815.560 272.716 L816.085 272.685 L816.587 272.634 L817.065 272.562 L817.520 272.470 L817.952 272.359 L818.360 272.228 L818.746 272.079 L819.109 271.911 L819.450 271.724 L819.770 271.519 L820.069 271.296 L820.345 271.056 L820.595 270.803 L820.821 270.536 L821.021 270.254 L821.198 269.958 L821.352 269.645 L821.483 269.316 L821.591 268.969 L821.675 268.604 L821.736 268.220 L821.773 267.816 L821.786 267.390 L821.777 267.002 L821.751 266.631 L821.709 266.278 L821.650 265.944 L821.575 265.629 L821.484 265.333 L821.378 265.055 L821.258 264.794 L821.122 264.550 L820.972 264.323 L820.806 264.111 L820.625 263.913 L820.422 263.724 L820.192 263.539 L819.932 263.358 L819.643 263.182 L819.325 263.011 L818.977 262.845 L818.600 262.686 L818.193 262.534 L817.757 262.389 L817.292 262.251 L816.798 262.121 L816.268 261.997 L813.801 261.426 L813.796 261.425 L813.022 261.238 L813.004 261.233 L812.266 261.032 L812.247 261.026 L811.545 260.809 L811.524 260.802 L810.859 260.570 L810.837 260.561 L810.207 260.314 L810.184 260.304 L809.590 260.041 L809.565 260.029 L809.008 259.751 L808.981 259.737 L808.461 259.444 L808.432 259.427 L807.948 259.118 L807.918 259.099 L807.470 258.775 L807.440 258.752 L807.027 258.413 L806.997 258.386 L806.621 258.031 L806.591 258.001 L806.247 257.629 L806.219 257.596 L805.906 257.203 L805.880 257.168 L805.596 256.754 L805.573 256.717 L805.319 256.283 L805.299 256.245 L805.075 255.790 L805.058 255.752 L804.864 255.276 L804.849 255.238 L804.685 254.742 L804.674 254.704 L804.540 254.187 L804.532 254.150 L804.427 253.613 L804.421 253.578 L804.347 253.020 L804.343 252.986 L804.298 252.408 L804.297 252.376 L804.282 251.777 L804.282 251.745 L804.303 250.996 L804.305 250.960 L804.369 250.236 L804.374 250.197 L804.481 249.499 L804.488 249.459 L804.638 248.786 L804.648 248.745 L804.840 248.096 L804.854 248.055 L805.089 247.432 L805.107 247.390 L805.384 246.793 L805.405 246.752 L805.725 246.179 L805.749 246.140 L806.112 245.593 L806.138 245.556 L806.544 245.034 L806.573 245.000 L807.021 244.503 L807.051 244.472 L807.542 244.000 L807.573 243.972 L808.099 243.532 L808.133 243.507 L808.687 243.105 L808.722 243.082 L809.304 242.718 L809.340 242.697 L809.951 242.372 L809.987 242.354 L810.626 242.068 L810.663 242.053 L811.330 241.804 L811.366 241.792 L812.061 241.581 L812.096 241.572 L812.819 241.400 L812.853 241.393 L813.604 241.259 L813.636 241.254 L814.416 241.158 L814.446 241.155 L815.254 241.098 L815.283 241.097 L816.118 241.077 L816.138 241.077 L816.467 241.080 L816.478 241.081 L816.810 241.090 L816.821 241.090 L817.155 241.106 L817.166 241.106 L817.504 241.128 L817.515 241.129 L817.855 241.157 L817.865 241.158 L818.209 241.192 L818.219 241.193 L818.565 241.233 L818.575 241.234 L818.924 241.281 L818.934 241.282 L819.285 241.335 L819.295 241.336 L819.650 241.395 L819.659 241.397 L820.016 241.462 L820.025 241.463 L820.386 241.534 L820.395 241.536 L820.758 241.614 L820.766 241.615 L821.133 241.699 L821.141 241.701 L821.511 241.791 L821.519 241.793 L821.892 241.889 L821.900 241.891 L822.276 241.993 L822.284 241.995 L822.663 242.103 L822.670 242.105 L823.053 242.220 L823.060 242.222 L823.446 242.343 L823.453 242.345 L823.841 242.472 L823.848 242.474 L824.240 242.607 L824.247 242.610 L824.642 242.749 L824.648 242.751 L825.047 242.897 L825.083 242.911 L825.118 242.928 L825.152 242.947 Z M562.042 242.144 L562.054 242.106 L562.068 242.069 L562.084 242.033 L562.103 241.998 L562.124 241.964 L562.147 241.932 L562.172 241.901 L562.199 241.872 L562.228 241.845 L562.259 241.820 L562.291 241.797 L562.325 241.776 L562.360 241.757 L562.396 241.741 L562.433 241.727 L562.472 241.715 L562.510 241.706 L562.549 241.700 L562.589 241.696 L562.629 241.694 L582.875 241.694 L582.915 241.696 L582.954 241.700 L582.994 241.706 L583.032 241.715 L583.070 241.727 L583.108 241.741 L583.144 241.757 L583.179 241.776 L583.213 241.797 L583.245 241.820 L583.276 241.845 L583.305 241.872 L583.332 241.901 L583.357 241.932 L583.380 241.964 L583.401 241.998 L583.420 242.033 L583.436 242.069 L583.450 242.106 L583.462 242.144 L583.471 242.183 L583.477 242.222 L583.481 242.262 L583.482 242.302 L583.482 246.186 L583.481 246.226 L583.477 246.266 L583.471 246.305 L583.462 246.344 L583.450 246.382 L583.436 246.419 L583.420 246.455 L583.401 246.490 L583.380 246.524 L583.357 246.556 L583.332 246.587 L583.305 246.616 L583.276 246.643 L583.245 246.668 L583.213 246.691 L583.179 246.712 L583.144 246.731 L583.108 246.747 L583.070 246.761 L583.032 246.773 L582.994 246.782 L582.954 246.788 L582.915 246.792 L582.875 246.794 L567.852 246.794 L567.852 255.679 L582.190 255.679 L582.229 255.681 L582.269 255.685 L582.308 255.691 L582.347 255.700 L582.385 255.712 L582.422 255.726 L582.458 255.742 L582.493 255.761 L582.527 255.782 L582.559 255.805 L582.590 255.830 L582.619 255.857 L582.646 255.886 L582.671 255.917 L582.695 255.949 L582.716 255.983 L582.734 256.018 L582.751 256.054 L582.765 256.092 L582.776 256.130 L582.785 256.168 L582.792 256.207 L582.796 256.247 L582.797 256.287 L582.797 260.172 L582.796 260.211 L582.792 260.251 L582.785 260.290 L582.776 260.329 L582.765 260.367 L582.751 260.404 L582.734 260.440 L582.716 260.475 L582.695 260.509 L582.671 260.541 L582.646 260.572 L582.619 260.601 L582.590 260.628 L582.559 260.653 L582.527 260.676 L582.493 260.697 L582.458 260.716 L582.422 260.733 L582.385 260.747 L582.347 260.758 L582.308 260.767 L582.269 260.774 L582.229 260.778 L582.190 260.779 L567.852 260.779 L567.852 271.927 L583.309 271.927 L583.349 271.928 L583.389 271.932 L583.428 271.939 L583.467 271.948 L583.505 271.959 L583.542 271.973 L583.578 271.990 L583.613 272.008 L583.647 272.029 L583.679 272.052 L583.710 272.078 L583.739 272.105 L583.766 272.134 L583.791 272.165 L583.814 272.197 L583.835 272.231 L583.854 272.266 L583.870 272.302 L583.884 272.339 L583.896 272.377 L583.905 272.416 L583.911 272.455 L583.915 272.494 L583.917 272.534 L583.917 276.419 L583.915 276.459 L583.911 276.498 L583.905 276.537 L583.896 276.576 L583.884 276.614 L583.870 276.651 L583.854 276.688 L583.835 276.723 L583.814 276.756 L583.791 276.789 L583.766 276.819 L583.739 276.848 L583.710 276.876 L583.679 276.901 L583.647 276.924 L583.613 276.945 L583.578 276.964 L583.542 276.980 L583.505 276.994 L583.467 277.006 L583.428 277.015 L583.389 277.021 L583.349 277.025 L583.309 277.026 L562.629 277.026 L562.589 277.025 L562.549 277.021 L562.510 277.015 L562.472 277.006 L562.433 276.994 L562.396 276.980 L562.360 276.964 L562.325 276.945 L562.291 276.924 L562.259 276.901 L562.228 276.876 L562.199 276.848 L562.172 276.819 L562.147 276.789 L562.124 276.756 L562.103 276.723 L562.084 276.688 L562.068 276.651 L562.054 276.614 L562.042 276.576 L562.033 276.537 L562.027 276.498 L562.023 276.459 L562.021 276.419 L562.021 242.302 L562.023 242.262 L562.027 242.222 L562.033 242.183 Z M626.713 260.788 L626.948 260.960 L626.970 260.977 L627.198 261.161 L627.219 261.178 L627.439 261.373 L627.459 261.391 L627.672 261.597 L627.694 261.619 L627.908 261.848 L627.929 261.872 L628.151 262.136 L628.167 262.156 L628.398 262.455 L628.411 262.472 L628.651 262.806 L628.661 262.821 L628.909 263.191 L628.918 263.204 L629.174 263.608 L629.182 263.620 L629.447 264.059 L629.453 264.069 L629.727 264.544 L629.732 264.553 L630.014 265.062 L630.018 265.071 L630.309 265.615 L630.313 265.622 L630.613 266.202 L630.616 266.209 L630.924 266.823 L630.925 266.825 L635.564 276.148 L635.580 276.185 L635.594 276.222 L635.606 276.260 L635.615 276.299 L635.622 276.338 L635.626 276.378 L635.627 276.417 L635.626 276.457 L635.622 276.497 L635.616 276.536 L635.607 276.575 L635.596 276.613 L635.582 276.650 L635.565 276.687 L635.547 276.722 L635.526 276.756 L635.502 276.788 L635.477 276.819 L635.450 276.848 L635.421 276.875 L635.390 276.900 L635.358 276.924 L635.324 276.945 L635.289 276.963 L635.253 276.980 L635.216 276.994 L635.178 277.006 L635.139 277.015 L635.099 277.021 L635.060 277.025 L635.020 277.026 L630.061 277.026 L630.021 277.025 L629.981 277.021 L629.941 277.014 L629.902 277.005 L629.863 276.993 L629.826 276.979 L629.789 276.962 L629.753 276.942 L629.719 276.921 L629.687 276.897 L629.656 276.871 L629.627 276.843 L629.600 276.813 L629.574 276.782 L629.551 276.749 L629.531 276.714 L629.512 276.678 L625.446 268.067 L625.160 267.481 L624.879 266.932 L624.605 266.422 L624.336 265.949 L624.073 265.514 L623.818 265.116 L623.569 264.758 L623.328 264.438 L623.096 264.156 L622.873 263.914 L622.662 263.712 L622.460 263.545 L622.254 263.400 L622.035 263.265 L621.804 263.142 L621.562 263.032 L621.307 262.934 L621.040 262.849 L620.760 262.776 L620.467 262.716 L620.160 262.668 L619.841 262.634 L619.507 262.614 L619.155 262.607 L615.358 262.607 L615.358 276.419 L615.357 276.459 L615.353 276.498 L615.346 276.537 L615.337 276.576 L615.326 276.614 L615.312 276.651 L615.295 276.688 L615.277 276.723 L615.256 276.756 L615.233 276.789 L615.207 276.819 L615.180 276.848 L615.151 276.876 L615.120 276.901 L615.088 276.924 L615.054 276.945 L615.019 276.964 L614.983 276.980 L614.946 276.994 L614.908 277.006 L614.869 277.015 L614.830 277.021 L614.790 277.025 L614.751 277.026 L610.112 277.026 L610.072 277.025 L610.033 277.021 L609.993 277.015 L609.955 277.006 L609.917 276.994 L609.879 276.980 L609.843 276.964 L609.808 276.945 L609.774 276.924 L609.742 276.901 L609.711 276.876 L609.682 276.848 L609.655 276.819 L609.630 276.789 L609.607 276.756 L609.586 276.723 L609.567 276.688 L609.551 276.651 L609.537 276.614 L609.525 276.576 L609.516 276.537 L609.510 276.498 L609.506 276.459 L609.505 276.419 L609.505 242.302 L609.506 242.262 L609.510 242.222 L609.516 242.183 L609.525 242.144 L609.537 242.106 L609.551 242.069 L609.567 242.033 L609.586 241.998 L609.607 241.964 L609.630 241.932 L609.655 241.901 L609.682 241.872 L609.711 241.845 L609.742 241.820 L609.774 241.797 L609.808 241.776 L609.843 241.757 L609.879 241.741 L609.917 241.727 L609.955 241.715 L609.993 241.706 L610.033 241.700 L610.072 241.696 L610.112 241.694 L619.618 241.694 L619.630 241.694 L620.548 241.712 L620.573 241.713 L621.455 241.766 L621.482 241.768 L622.328 241.856 L622.356 241.860 L623.165 241.983 L623.196 241.989 L623.968 242.147 L624.001 242.155 L624.737 242.348 L624.772 242.359 L625.471 242.588 L625.507 242.601 L626.170 242.865 L626.207 242.881 L626.834 243.180 L626.872 243.200 L627.462 243.535 L627.500 243.558 L628.053 243.928 L628.090 243.955 L628.608 244.360 L628.644 244.391 L629.122 244.829 L629.156 244.863 L629.593 245.333 L629.625 245.371 L630.020 245.872 L630.049 245.912 L630.402 246.445 L630.428 246.487 L630.740 247.051 L630.761 247.094 L631.031 247.689 L631.049 247.732 L631.278 248.359 L631.291 248.401 L631.478 249.060 L631.488 249.100 L631.634 249.790 L631.641 249.829 L631.745 250.550 L631.749 250.587 L631.811 251.339 L631.813 251.373 L631.834 252.157 L631.834 252.187 L631.821 252.742 L631.820 252.772 L631.781 253.309 L631.778 253.340 L631.714 253.861 L631.710 253.893 L631.620 254.396 L631.613 254.430 L631.498 254.915 L631.489 254.950 L631.349 255.419 L631.337 255.454 L631.171 255.905 L631.156 255.941 L630.965 256.375 L630.948 256.410 L630.730 256.827 L630.711 256.861 L630.468 257.261 L630.446 257.294 L630.178 257.676 L630.154 257.708 L629.860 258.073 L629.834 258.103 L629.517 258.448 L629.489 258.477 L629.151 258.798 L629.121 258.825 L628.762 259.124 L628.731 259.148 L628.351 259.424 L628.319 259.446 L627.918 259.699 L627.885 259.718 L627.464 259.948 L627.431 259.965 L626.989 260.171 L626.956 260.186 L626.493 260.369 L626.461 260.381 L626.205 260.466 L626.424 260.597 L626.448 260.612 L626.690 260.772 Z M621.274 257.511 L621.714 257.443 L622.128 257.357 L622.516 257.253 L622.879 257.132 L623.216 256.993 L623.529 256.837 L623.818 256.665 L624.083 256.477 L624.326 256.273 L624.549 256.051 L624.752 255.810 L624.937 255.549 L625.103 255.267 L625.251 254.964 L625.381 254.637 L625.493 254.287 L625.585 253.913 L625.657 253.514 L625.710 253.092 L625.741 252.645 L625.752 252.174 L625.741 251.723 L625.707 251.294 L625.652 250.886 L625.576 250.499 L625.478 250.133 L625.360 249.788 L625.222 249.463 L625.064 249.158 L624.886 248.870 L624.687 248.600 L624.467 248.347 L624.226 248.110 L623.964 247.891 L623.682 247.690 L623.379 247.507 L623.054 247.342 L622.706 247.195 L622.336 247.066 L621.942 246.956 L621.525 246.866 L621.084 246.795 L620.619 246.744 L620.130 246.713 L619.612 246.702 L615.358 246.702 L615.358 257.599 L619.795 257.599 L620.317 257.589 L620.809 257.560 Z M753.255 242.460 L753.246 242.421 L753.239 242.382 L753.235 242.342 L753.234 242.302 L753.235 242.263 L753.239 242.223 L753.245 242.184 L753.254 242.145 L753.266 242.107 L753.280 242.070 L753.296 242.033 L753.315 241.998 L753.336 241.965 L753.359 241.932 L753.384 241.901 L753.411 241.872 L753.440 241.845 L753.471 241.820 L753.503 241.797 L753.537 241.776 L753.572 241.757 L753.608 241.741 L753.646 241.727 L753.684 241.715 L753.722 241.706 L753.762 241.700 L753.801 241.696 L753.841 241.694 L758.754 241.694 L758.795 241.696 L758.835 241.700 L758.875 241.706 L758.914 241.716 L758.953 241.728 L758.990 241.742 L759.027 241.759 L759.063 241.779 L759.097 241.800 L759.129 241.824 L759.160 241.850 L759.190 241.878 L759.217 241.908 L759.242 241.940 L759.265 241.973 L759.286 242.008 L767.071 256.103 L774.835 242.009 L774.856 241.974 L774.879 241.940 L774.904 241.909 L774.931 241.879 L774.960 241.851 L774.991 241.824 L775.024 241.801 L775.058 241.779 L775.094 241.759 L775.131 241.742 L775.168 241.728 L775.207 241.716 L775.246 241.706 L775.286 241.700 L775.327 241.696 L775.367 241.694 L780.326 241.694 L780.366 241.696 L780.405 241.700 L780.445 241.706 L780.483 241.715 L780.521 241.727 L780.559 241.741 L780.595 241.757 L780.630 241.776 L780.664 241.797 L780.696 241.820 L780.727 241.845 L780.756 241.873 L780.783 241.902 L780.808 241.933 L780.831 241.965 L780.852 241.999 L780.871 242.034 L780.887 242.070 L780.901 242.108 L780.913 242.146 L780.922 242.184 L780.928 242.224 L780.932 242.263 L780.933 242.303 L780.932 242.343 L780.928 242.383 L780.921 242.422 L780.912 242.461 L780.900 242.499 L780.886 242.536 L780.870 242.572 L780.851 242.607 L769.987 261.272 L769.987 276.419 L769.986 276.459 L769.982 276.498 L769.976 276.537 L769.967 276.576 L769.955 276.614 L769.941 276.651 L769.925 276.688 L769.906 276.723 L769.885 276.756 L769.862 276.789 L769.837 276.819 L769.809 276.848 L769.780 276.876 L769.750 276.901 L769.717 276.924 L769.684 276.945 L769.649 276.964 L769.612 276.980 L769.575 276.994 L769.537 277.006 L769.499 277.015 L769.459 277.021 L769.420 277.025 L769.380 277.026 L764.741 277.026 L764.701 277.025 L764.662 277.021 L764.623 277.015 L764.584 277.006 L764.546 276.994 L764.509 276.980 L764.473 276.964 L764.438 276.945 L764.404 276.924 L764.372 276.901 L764.341 276.876 L764.312 276.848 L764.285 276.819 L764.259 276.789 L764.236 276.756 L764.215 276.723 L764.197 276.688 L764.180 276.651 L764.166 276.614 L764.155 276.576 L764.146 276.537 L764.139 276.498 L764.135 276.459 L764.134 276.419 L764.134 261.272 L753.316 242.606 L753.297 242.571 L753.280 242.535 L753.266 242.498 Z M850.917 242.144 L850.929 242.106 L850.943 242.069 L850.959 242.033 L850.978 241.998 L850.999 241.964 L851.022 241.932 L851.047 241.901 L851.074 241.872 L851.103 241.845 L851.134 241.820 L851.166 241.797 L851.200 241.776 L851.235 241.757 L851.271 241.741 L851.309 241.727 L851.347 241.715 L851.385 241.706 L851.425 241.700 L851.464 241.696 L851.504 241.694 L877.532 241.694 L877.571 241.696 L877.611 241.700 L877.650 241.706 L877.689 241.715 L877.727 241.727 L877.764 241.741 L877.800 241.757 L877.835 241.776 L877.869 241.797 L877.901 241.820 L877.932 241.845 L877.961 241.872 L877.988 241.901 L878.014 241.932 L878.037 241.964 L878.058 241.998 L878.076 242.033 L878.093 242.069 L878.107 242.106 L878.118 242.144 L878.127 242.183 L878.134 242.222 L878.138 242.262 L878.139 242.302 L878.139 246.186 L878.138 246.226 L878.134 246.266 L878.127 246.305 L878.118 246.344 L878.107 246.382 L878.093 246.419 L878.076 246.455 L878.058 246.490 L878.037 246.524 L878.014 246.556 L877.988 246.587 L877.961 246.616 L877.932 246.643 L877.901 246.668 L877.869 246.691 L877.835 246.712 L877.800 246.731 L877.764 246.747 L877.727 246.761 L877.689 246.773 L877.650 246.782 L877.611 246.788 L877.571 246.792 L877.532 246.794 L867.467 246.794 L867.467 276.419 L867.466 276.459 L867.462 276.498 L867.456 276.537 L867.447 276.576 L867.435 276.614 L867.421 276.651 L867.405 276.688 L867.386 276.723 L867.365 276.756 L867.342 276.789 L867.317 276.819 L867.289 276.848 L867.260 276.876 L867.230 276.901 L867.197 276.924 L867.164 276.945 L867.129 276.964 L867.092 276.980 L867.055 276.994 L867.017 277.006 L866.979 277.015 L866.939 277.021 L866.900 277.025 L866.860 277.026 L862.221 277.026 L862.181 277.025 L862.142 277.021 L862.103 277.015 L862.064 277.006 L862.026 276.994 L861.989 276.980 L861.953 276.964 L861.918 276.945 L861.884 276.924 L861.852 276.901 L861.821 276.876 L861.792 276.848 L861.765 276.819 L861.739 276.789 L861.716 276.756 L861.695 276.723 L861.677 276.688 L861.660 276.651 L861.646 276.614 L861.635 276.576 L861.626 276.537 L861.619 276.498 L861.615 276.459 L861.614 276.419 L861.614 246.794 L851.504 246.794 L851.464 246.792 L851.425 246.788 L851.385 246.782 L851.347 246.773 L851.309 246.761 L851.271 246.747 L851.235 246.731 L851.200 246.712 L851.166 246.691 L851.134 246.668 L851.103 246.643 L851.074 246.616 L851.047 246.587 L851.022 246.556 L850.999 246.524 L850.978 246.490 L850.959 246.455 L850.943 246.419 L850.929 246.382 L850.917 246.344 L850.908 246.305 L850.902 246.266 L850.898 246.226 L850.897 246.186 L850.897 242.302 L850.898 242.262 L850.902 242.222 L850.908 242.183 Z M903.074 242.106 L903.088 242.069 L903.104 242.033 L903.123 241.998 L903.144 241.964 L903.167 241.932 L903.192 241.901 L903.219 241.872 L903.248 241.845 L903.279 241.820 L903.311 241.797 L903.345 241.776 L903.380 241.757 L903.416 241.741 L903.453 241.727 L903.492 241.715 L903.530 241.706 L903.569 241.700 L903.609 241.696 L903.649 241.694 L923.895 241.694 L923.935 241.696 L923.974 241.700 L924.014 241.706 L924.052 241.715 L924.090 241.727 L924.128 241.741 L924.164 241.757 L924.199 241.776 L924.233 241.797 L924.265 241.820 L924.296 241.845 L924.325 241.872 L924.352 241.901 L924.377 241.932 L924.400 241.964 L924.421 241.998 L924.440 242.033 L924.456 242.069 L924.470 242.106 L924.482 242.144 L924.491 242.183 L924.497 242.222 L924.501 242.262 L924.502 242.302 L924.502 246.186 L924.501 246.226 L924.497 246.266 L924.491 246.305 L924.482 246.344 L924.470 246.382 L924.456 246.419 L924.440 246.455 L924.421 246.490 L924.400 246.524 L924.377 246.556 L924.352 246.587 L924.325 246.616 L924.296 246.643 L924.265 246.668 L924.233 246.691 L924.199 246.712 L924.164 246.731 L924.128 246.747 L924.090 246.761 L924.052 246.773 L924.014 246.782 L923.974 246.788 L923.935 246.792 L923.895 246.794 L908.872 246.794 L908.872 255.679 L923.210 255.679 L923.249 255.681 L923.289 255.685 L923.328 255.691 L923.367 255.700 L923.405 255.712 L923.442 255.726 L923.478 255.742 L923.513 255.761 L923.547 255.782 L923.579 255.805 L923.610 255.830 L923.639 255.857 L923.666 255.886 L923.691 255.917 L923.715 255.949 L923.736 255.983 L923.754 256.018 L923.771 256.054 L923.785 256.092 L923.796 256.130 L923.805 256.168 L923.812 256.207 L923.816 256.247 L923.817 256.287 L923.817 260.172 L923.816 260.211 L923.812 260.251 L923.805 260.290 L923.796 260.329 L923.785 260.367 L923.771 260.404 L923.754 260.440 L923.736 260.475 L923.715 260.509 L923.691 260.541 L923.666 260.572 L923.639 260.601 L923.610 260.628 L923.579 260.653 L923.547 260.676 L923.513 260.697 L923.478 260.716 L923.442 260.733 L923.405 260.747 L923.367 260.758 L923.328 260.767 L923.289 260.774 L923.249 260.778 L923.210 260.779 L908.872 260.779 L908.872 271.927 L924.329 271.927 L924.369 271.928 L924.409 271.932 L924.448 271.939 L924.487 271.948 L924.525 271.959 L924.562 271.973 L924.598 271.990 L924.633 272.008 L924.667 272.029 L924.699 272.052 L924.730 272.078 L924.759 272.105 L924.786 272.134 L924.811 272.165 L924.834 272.197 L924.855 272.231 L924.874 272.266 L924.890 272.302 L924.904 272.339 L924.916 272.377 L924.925 272.416 L924.931 272.455 L924.935 272.494 L924.937 272.534 L924.937 276.419 L924.935 276.459 L924.931 276.498 L924.925 276.537 L924.916 276.576 L924.904 276.614 L924.890 276.651 L924.874 276.688 L924.855 276.723 L924.834 276.756 L924.811 276.789 L924.786 276.819 L924.759 276.848 L924.730 276.876 L924.699 276.901 L924.667 276.924 L924.633 276.945 L924.598 276.964 L924.562 276.980 L924.525 276.994 L924.487 277.006 L924.448 277.015 L924.409 277.021 L924.369 277.025 L924.329 277.026 L903.649 277.026 L903.609 277.025 L903.569 277.021 L903.530 277.015 L903.492 277.006 L903.453 276.994 L903.416 276.980 L903.380 276.964 L903.345 276.945 L903.311 276.924 L903.279 276.901 L903.248 276.876 L903.219 276.848 L903.192 276.819 L903.167 276.789 L903.144 276.756 L903.123 276.723 L903.104 276.688 L903.088 276.651 L903.074 276.614 L903.062 276.576 L903.053 276.537 L903.047 276.498 L903.043 276.459 L903.041 276.419 L903.041 242.302 L903.043 242.262 L903.047 242.222 L903.053 242.183 L903.062 242.144 Z M949.254 242.106 L949.268 242.069 L949.285 242.033 L949.303 241.998 L949.324 241.964 L949.348 241.932 L949.373 241.901 L949.400 241.872 L949.429 241.845 L949.460 241.820 L949.492 241.797 L949.526 241.776 L949.561 241.757 L949.597 241.741 L949.634 241.727 L949.672 241.715 L949.711 241.706 L949.750 241.700 L949.790 241.696 L949.829 241.694 L955.999 241.694 L956.039 241.696 L956.078 241.700 L956.118 241.706 L956.156 241.715 L956.194 241.727 L956.232 241.741 L956.268 241.757 L956.303 241.776 L956.337 241.797 L956.369 241.820 L956.400 241.845 L956.429 241.872 L956.456 241.901 L956.481 241.932 L956.504 241.964 L956.525 241.998 L956.544 242.033 L956.560 242.069 L956.574 242.106 L961.897 257.786 L967.262 242.105 L967.276 242.068 L967.292 242.032 L967.311 241.997 L967.332 241.963 L967.355 241.931 L967.380 241.900 L967.408 241.872 L967.437 241.844 L967.467 241.819 L967.500 241.796 L967.533 241.775 L967.568 241.757 L967.604 241.740 L967.641 241.726 L967.679 241.715 L967.718 241.706 L967.757 241.699 L967.797 241.696 L967.836 241.694 L974.029 241.694 L974.069 241.696 L974.108 241.700 L974.148 241.706 L974.186 241.715 L974.224 241.727 L974.262 241.741 L974.298 241.757 L974.333 241.776 L974.367 241.797 L974.399 241.820 L974.430 241.845 L974.459 241.872 L974.486 241.901 L974.511 241.932 L974.534 241.964 L974.555 241.998 L974.574 242.033 L974.590 242.069 L974.604 242.106 L974.616 242.144 L974.625 242.183 L974.631 242.222 L974.635 242.262 L974.636 242.302 L974.636 276.419 L974.635 276.459 L974.631 276.498 L974.625 276.537 L974.616 276.576 L974.604 276.614 L974.590 276.651 L974.574 276.688 L974.555 276.723 L974.534 276.756 L974.511 276.789 L974.486 276.819 L974.459 276.848 L974.430 276.876 L974.399 276.901 L974.367 276.924 L974.333 276.945 L974.298 276.964 L974.262 276.980 L974.224 276.994 L974.186 277.006 L974.148 277.015 L974.108 277.021 L974.069 277.025 L974.029 277.026 L969.756 277.026 L969.716 277.025 L969.677 277.021 L969.637 277.015 L969.599 277.006 L969.561 276.994 L969.523 276.980 L969.487 276.964 L969.452 276.945 L969.418 276.924 L969.386 276.901 L969.355 276.876 L969.326 276.848 L969.299 276.819 L969.274 276.789 L969.251 276.756 L969.230 276.723 L969.211 276.688 L969.195 276.651 L969.181 276.614 L969.169 276.576 L969.160 276.537 L969.154 276.498 L969.150 276.459 L969.149 276.419 L969.149 249.971 L964.253 264.456 L964.239 264.494 L964.222 264.530 L964.204 264.565 L964.183 264.599 L964.160 264.631 L964.134 264.662 L964.107 264.691 L964.078 264.718 L964.047 264.743 L964.015 264.767 L963.981 264.788 L963.946 264.806 L963.910 264.823 L963.873 264.837 L963.835 264.849 L963.796 264.858 L963.757 264.864 L963.717 264.868 L963.677 264.869 L960.181 264.869 L960.141 264.868 L960.102 264.864 L960.063 264.858 L960.024 264.849 L959.986 264.837 L959.949 264.823 L959.912 264.807 L959.877 264.788 L959.844 264.767 L959.811 264.744 L959.781 264.718 L959.752 264.691 L959.724 264.662 L959.699 264.632 L959.676 264.599 L959.655 264.566 L959.636 264.530 L959.620 264.494 L959.606 264.457 L954.687 249.958 L954.687 276.419 L954.686 276.459 L954.682 276.498 L954.675 276.537 L954.666 276.576 L954.655 276.614 L954.641 276.651 L954.624 276.688 L954.606 276.723 L954.585 276.756 L954.561 276.789 L954.536 276.819 L954.509 276.848 L954.480 276.876 L954.449 276.901 L954.417 276.924 L954.383 276.945 L954.348 276.964 L954.312 276.980 L954.275 276.994 L954.237 277.006 L954.198 277.015 L954.159 277.021 L954.119 277.025 L954.080 277.026 L949.829 277.026 L949.790 277.025 L949.750 277.021 L949.711 277.015 L949.672 277.006 L949.634 276.994 L949.597 276.980 L949.561 276.964 L949.526 276.945 L949.492 276.924 L949.460 276.901 L949.429 276.876 L949.400 276.848 L949.373 276.819 L949.348 276.789 L949.324 276.756 L949.303 276.723 L949.285 276.688 L949.268 276.651 L949.254 276.614 L949.243 276.576 L949.234 276.537 L949.227 276.498 L949.223 276.459 L949.222 276.419 L949.222 242.302 L949.223 242.262 L949.227 242.222 L949.234 242.183 L949.243 242.144 Z"/></svg>